<?xml version="1.0" standalone="no"?>
<!DOCTYPE svg PUBLIC "-//W3C//DTD SVG 1.1//EN" "http://www.w3.org/Graphics/SVG/1.1/DTD/svg11.dtd" >
<svg>
<metadata>
Created by FontForge 20120731 at Sun Nov 11 11:12:19 2018
 By www
Copyright (c) 2005-2009, Joshua Darden &#38; Phil's Fonts, Inc. All rights reserved. Published by Garagefonts USA 301-879-9222 www.garagefonts.com
</metadata>
<defs>
<font id="FreightDisplayW01-LightIt" horiz-adv-x="379" >
  <font-face 
    font-family="FreightDisplayW01-LightIt"
    font-weight="300"
    font-style="italic"
    font-stretch="normal"
    units-per-em="1000"
    panose-1="2 0 6 6 8 0 0 9 0 4"
    ascent="800"
    descent="-200"
    x-height="444"
    cap-height="625"
    bbox="-156 -262 991 851"
    underline-thickness="50"
    underline-position="-166"
    slope="-12"
    unicode-range="U+0002-2122"
  />
<missing-glyph horiz-adv-x="180" 
 />
    <glyph glyph-name=".notdef" horiz-adv-x="180" 
 />
    <glyph glyph-name=".null" horiz-adv-x="0" 
 />
    <glyph glyph-name="uni000D" unicode="&#xd;" horiz-adv-x="180" 
 />
    <glyph glyph-name="uni0002" horiz-adv-x="0" 
 />
    <glyph glyph-name="uni0009" unicode="&#x9;" horiz-adv-x="180" 
 />
    <glyph glyph-name="uni000A" unicode="&#xa;" horiz-adv-x="0" 
 />
    <glyph glyph-name="space" unicode=" " horiz-adv-x="180" 
 />
    <glyph glyph-name="exclam" unicode="!" horiz-adv-x="236" 
d="M117 191q-1 -5 -6.5 -4.5t-4.5 4.5l47 401q1 8 2.5 16.5t5.5 16t11 11.5t19 3h15q12 -1 17 -6t5.5 -12.5t-1.5 -16.5t-4 -17zM83 -14q-20 0 -33.5 14t-12.5 32q0 17 13.5 30t33.5 13t32.5 -13t11.5 -30q0 -18 -12.5 -32t-32.5 -14z" />
    <glyph glyph-name="quotedbl" unicode="&#x22;" horiz-adv-x="291" 
d="M334 647h1l36 -16l-188 -228h-11zM205 647h2l35 -16l-188 -228h-11z" />
    <glyph glyph-name="numbersign" unicode="#" horiz-adv-x="511" 
d="M142 190h-137v14h141l56 214h-136v15h140l53 199h16l-52 -199h169l53 199h16l-53 -199h137v-15h-140l-57 -214h137v-14h-141l-51 -195h-17l52 195h-170l-51 -195h-17zM331 204l57 214h-169l-57 -214h169z" />
    <glyph glyph-name="dollar" unicode="$" horiz-adv-x="445" 
d="M100 -4q-55 14 -99 39l11 145h13l11 -70q19 -63 74 -91l121 290l-3 2q-24 13 -46.5 28t-40 34t-28.5 42.5t-11 53.5q0 37 15.5 68.5t42 54.5t62.5 36t77 13q36 0 66 -9l45 108h18l-47 -112q11 -4 20.5 -7.5t17.5 -8.5l50 10l-18 -163l-13 1l-32 128q-14 12 -33 21
l-103 -249l6 -3q25 -14 50 -30.5t44.5 -37.5t31.5 -47.5t12 -59.5q0 -42 -17 -78t-47 -62.5t-71 -42t-90 -15.5q-34 0 -72 8l-65 -156h-18zM125 12q31 -11 67 -11q37 0 68.5 11t54.5 31.5t35.5 48.5t12.5 63q0 48 -31.5 83t-85.5 64zM358 615q-30 11 -60 11q-33 0 -60 -11
t-46.5 -29t-30 -41t-10.5 -48q0 -44 30 -74t74 -55z" />
    <glyph glyph-name="percent" unicode="%" horiz-adv-x="608" 
d="M199 364q-30 0 -54.5 10t-42.5 28t-27.5 42.5t-9.5 52.5q0 29 10.5 55.5t29 46.5t44.5 31.5t58 11.5q30 0 55 -10.5t43 -28.5t27.5 -42.5t9.5 -52.5q0 -29 -10.5 -55.5t-29 -46t-45 -31t-58.5 -11.5zM611 640h24l-600 -654h-24zM441 -16q-30 0 -54.5 10t-42 28t-27 42
t-9.5 52q0 30 10 56.5t29 46.5t45 31.5t58 11.5q30 0 54.5 -10.5t42.5 -28.5t27.5 -42.5t9.5 -52.5q0 -29 -10.5 -55.5t-29 -46t-45 -31t-58.5 -11.5zM200 380q27 0 49.5 10t38.5 27t25 39.5t9 48.5q0 25 -8.5 47t-23.5 38t-36.5 25.5t-47.5 9.5q-27 0 -49.5 -10.5
t-38.5 -27.5t-24.5 -40.5t-8.5 -48.5q0 -51 31.5 -84.5t83.5 -33.5zM443 0q27 0 49.5 10t38.5 27t25 40.5t9 49.5q0 25 -8.5 46.5t-23.5 37.5t-36.5 25t-47.5 9q-27 0 -49.5 -10.5t-38.5 -27.5t-24.5 -40.5t-8.5 -48.5q0 -51 31.5 -84.5t83.5 -33.5z" />
    <glyph glyph-name="ampersand" unicode="&#x26;" horiz-adv-x="695" 
d="M601 354q39 -12 61 -43.5t22 -79.5t-28.5 -92.5t-76 -78t-109.5 -53.5t-130 -20q-70 0 -128.5 17.5t-101 49.5t-66 76.5t-23.5 97.5q0 39 12.5 74.5t35 64.5t54 50t68.5 31q-4 17 -4 38q0 33 10 61t27.5 48.5t41.5 32t52 11.5t54 -12.5t45 -35t28.5 -54t4.5 -68.5l-17 3
q1 21 -4 44t-17 41.5t-30.5 31t-43.5 12.5q-48 0 -74.5 -31t-26.5 -86q0 -8 0.5 -14.5t1.5 -13.5q4 1 8 1h9q27 0 51 -7t41.5 -19.5t28 -29t10.5 -35.5q0 -23 -18.5 -37t-48.5 -14q-20 0 -39.5 9t-36 24.5t-29 36.5t-19.5 45q-56 -17 -91 -58.5t-35 -98.5t22.5 -102
t64.5 -76.5t100.5 -48t130.5 -16.5q58 0 109 16.5t88.5 44t59 64t21.5 76.5q0 24 -8 44.5t-22.5 36t-34.5 24t-44 8.5q-15 0 -31 -6.5t-30 -17t-23 -22.5t-9 -22q0 -53 59 -60q-6 6 -8 14.5t1 17t10.5 14.5t18.5 6q12 0 21.5 -10t9.5 -21q0 -15 -12 -26t-30 -11
q-43 0 -69 24t-26 64q0 31 20 51.5t50.5 35t66 26.5t66 25.5t50.5 32t20 47.5q0 33 -20 55t-54 26q8 -5 11.5 -14t1.5 -18t-9.5 -15.5t-19.5 -6.5q-13 0 -23.5 9.5t-10.5 21.5q0 17 13 29t34 12q20 0 38.5 -10.5t32.5 -27.5t22.5 -40.5t8.5 -48.5q0 -42 -31.5 -72
t-104.5 -52zM242 438q11 -43 37 -68.5t61 -25.5q11 0 19 8.5t8 19.5q0 13 -9 25t-24.5 21.5t-35 15t-40.5 5.5h-8t-8 -1z" />
    <glyph glyph-name="quotesingle" unicode="'" horiz-adv-x="149" 
d="M205 647h2l35 -16l-188 -228h-12z" />
    <glyph glyph-name="parenleft" unicode="(" horiz-adv-x="340" 
d="M252 -262q-37 24 -76.5 68t-69.5 105t-44 138t0 166q13 89 50 161t84 126t98.5 90t94.5 54l4 -8q2 -3 3.5 -5.5t1.5 -3.5q-42 -18 -91.5 -53.5t-94.5 -88t-79.5 -121.5t-47.5 -153q-13 -85 -0.5 -158.5t40.5 -132.5t65 -102t73 -66l-6 -8q-3 -4 -5 -8z" />
    <glyph glyph-name="parenright" unicode=")" horiz-adv-x="340" 
d="M-58 -262q-3 4 -5 8q-4 8 -4 9q42 18 91.5 53.5t94.5 88t80 121.5t48 153q13 85 0 158.5t-41 132.5t-65 102t-73 66l6 8l6 8q36 -24 75.5 -68t69.5 -105.5t44 -138t1 -164.5q-14 -89 -51 -161t-84 -126.5t-98.5 -90.5t-94.5 -54z" />
    <glyph glyph-name="asterisk" unicode="*" horiz-adv-x="315" 
d="M191 382l11 91q0 2 -3 3.5t-5 0.5l-72 -64l-57 -10q-1 0 -2.5 3t-0.5 4l39 48l90 25q2 1 2.5 4.5t-0.5 4.5l-77 41l-24 50q0 1 2.5 4.5t3.5 2.5l55 -17l43 -77q1 -2 6 -0.5t5 3.5l27 92l44 40q1 1 4 -0.5t3 -2.5l-5 -56l-69 -76q-1 -2 1 -5t4 -3l97 16l47 -26v-4
q0 -1 -0.5 -1.5t-0.5 -1.5v-1l-56 -19l-88 31q-2 1 -4.5 -1.5t-2.5 -4.5l36 -84l-16 -56q-2 -1 -4 -1h-4z" />
    <glyph glyph-name="plus" unicode="+" horiz-adv-x="448" 
d="M217 225h-198l3 22h195v198h22v-198h195l3 -22h-198v-198h-22v198z" />
    <glyph glyph-name="comma" unicode="," horiz-adv-x="167" 
d="M-35 -107q14 8 30 18.5t30 25t23 32t10 39.5q1 26 -18.5 38t-38.5 4q-3 20 10 36t38 16q27 0 43.5 -18.5t15.5 -47.5q-1 -23 -13 -46t-30.5 -43t-43 -36t-51.5 -26z" />
    <glyph glyph-name="hyphen" unicode="-" horiz-adv-x="294" 
d="M24 255h242l-4 -28h-244z" />
    <glyph glyph-name="period" unicode="." horiz-adv-x="182" 
d="M56 -14q-20 0 -33.5 14t-12.5 33q0 17 13.5 30.5t33.5 13.5t32.5 -13.5t11.5 -30.5q0 -19 -12.5 -33t-32.5 -14z" />
    <glyph glyph-name="slash" unicode="/" horiz-adv-x="258" 
d="M226 639h19l-211 -875h-19z" />
    <glyph glyph-name="zero" unicode="0" horiz-adv-x="512" 
d="M227 -12q-44 0 -79.5 15t-60 42.5t-37.5 65.5t-13 84q0 53 17.5 104.5t49.5 92.5t76 66t97 25q43 0 78 -15.5t59.5 -43t37.5 -65.5t13 -84q0 -56 -18 -108t-49.5 -92t-75 -63.5t-95.5 -23.5zM223 3q43 0 77.5 25t59 66.5t37.5 94t13 106.5q0 36 -8.5 67t-25 54.5
t-41 36.5t-55.5 13q-43 0 -78 -24.5t-59.5 -65.5t-37.5 -94t-13 -110q0 -36 8.5 -67t25 -53.5t41 -35.5t56.5 -13z" />
    <glyph glyph-name="one" unicode="1" horiz-adv-x="316" 
d="M18 0l2 7q1 3 2 7l50 3q18 0 25.5 2.5t9.5 10.5l76 406l-106 10l3 12l160 21l-85 -451q-2 -5 5 -7.5t33 -3.5l44 -3l1 -14h-220z" />
    <glyph glyph-name="two" unicode="2" horiz-adv-x="415" 
d="M-16 17q86 62 148 108.5t101.5 84.5t58.5 71t19 68q0 43 -27 67.5t-70 24.5q-40 0 -76 -22.5t-63 -57.5l-9 10q35 48 81.5 80t97.5 32q54 0 89 -31t35 -79q0 -39 -21.5 -74.5t-62 -73t-98.5 -80t-131 -94.5v-3h182q25 0 43.5 6t32.5 18t26 29.5t25 40.5l12 29l13 -1
l-63 -170h-342z" />
    <glyph glyph-name="three" unicode="3" horiz-adv-x="393" 
d="M66 -201q-49 0 -83.5 15.5t-34.5 47.5q0 19 14 32.5t31 13.5q14 0 24.5 -7t15.5 -18t4 -25t-10 -29q17 -5 30 -8.5t27 -3.5q40 0 74 15t59 41.5t39.5 62t14.5 76.5q0 56 -35.5 91t-94.5 35q-20 0 -41.5 -4t-41.5 -11l-4 12q53 24 96.5 48t74 49t47 52.5t16.5 59.5
q0 46 -27.5 72t-72.5 26q-38 0 -74.5 -23.5t-64.5 -60.5l-8 9q36 53 82 84.5t99 31.5q26 0 49 -8.5t40 -24t26.5 -37.5t9.5 -48q0 -32 -15.5 -59t-41 -50t-58 -42t-67.5 -36v-3q3 1 7 1h8q29 0 55.5 -11t46.5 -30t32 -45.5t12 -57.5q0 -47 -22 -89.5t-58.5 -74.5
t-83.5 -50.5t-96 -18.5z" />
    <glyph glyph-name="four" unicode="4" horiz-adv-x="446" 
d="M237 18h-267l2 11l386 447h15l-79 -415l116 -1l-22 -42h-102l-37 -202h-49zM245 61l63 331h-2l-284 -331h223z" />
    <glyph glyph-name="five" unicode="5" 
d="M44 -201q-47 0 -74.5 18t-25.5 48q1 18 15 32t31 14q14 0 25 -7t16 -18.5t4 -26.5t-11 -30q17 -5 27 -7t24 -2q35 0 66.5 16.5t55 43.5t38 61.5t15.5 71.5q2 76 -53.5 124.5t-152.5 68.5l97 264h233l-20 -55h-215l-60 -169q105 -22 164 -79t56 -137q-2 -44 -22 -85.5
t-54 -73.5t-80 -52t-99 -20z" />
    <glyph glyph-name="six" unicode="6" horiz-adv-x="462" 
d="M212 -12q-40 0 -73 15.5t-57 43.5t-37 67t-13 86q0 81 39.5 157t106.5 136t156.5 97.5t188.5 42.5l6 -11q-77 -7 -143.5 -34.5t-119.5 -69.5t-92.5 -95t-61.5 -111l3 -1q35 36 80 59t90 23q36 0 63 -13t45 -35t27.5 -51.5t9.5 -62.5q0 -45 -18 -89t-48 -78t-69.5 -55
t-82.5 -21zM213 3q33 0 61.5 17.5t49.5 47.5t33.5 69.5t12.5 83.5q0 66 -30 103.5t-85 37.5q-38 0 -75 -18.5t-72 -52.5q-11 -29 -16 -59t-5 -57q0 -35 8.5 -66t25 -54.5t39.5 -37.5t53 -14z" />
    <glyph glyph-name="seven" unicode="7" horiz-adv-x="408" 
d="M394 414l-1 5h-240q-17 0 -29 -4t-21 -12.5t-17 -21.5t-17 -30q-3 -6 -5 -11t-3.5 -8.5t-2.5 -5.5h-8q-2 0 -4 1l43 143h348v-13l-386 -642h-46z" />
    <glyph glyph-name="eight" unicode="8" horiz-adv-x="449" 
d="M192 -15q-39 1 -71 14t-55 35t-35 50.5t-10 60.5q1 31 15 59t38.5 50.5t57 39t71.5 24.5v2q-47 29 -75 67t-26 86q1 35 17.5 65t43 52.5t60.5 34.5t71 11q34 -1 63 -13t50 -32t32 -46t10 -56q-2 -55 -45 -97.5t-111 -65.5v-1q49 -33 80.5 -73.5t30.5 -92.5
q-2 -39 -19 -71.5t-45.5 -55.5t-66.5 -35.5t-81 -11.5zM281 332q49 21 82 62t35 96t-29 92.5t-86 38.5q-27 1 -51 -9t-42 -27t-29 -40.5t-12 -49.5q-2 -53 36 -90.5t96 -72.5zM208 -1q31 0 58 9.5t47 27.5t31.5 43t12.5 54t-10.5 53.5t-31 46.5t-46 41t-54.5 37
q-30 -9 -55.5 -25.5t-45 -39t-31 -50.5t-12.5 -59q-3 -58 32.5 -97t104.5 -41z" />
    <glyph glyph-name="nine" unicode="9" horiz-adv-x="462" 
d="M-64 -148q77 7 143 34.5t119.5 69.5t92.5 95t62 111l-3 1q-35 -36 -80 -59t-90 -23q-36 0 -63 13t-45 35t-27.5 51.5t-9.5 62.5q0 45 18 89t48 78t69.5 55t82.5 21q40 0 73 -15.5t57 -43t37.5 -66.5t13.5 -86q0 -54 -18 -106.5t-50.5 -99.5t-78 -87.5t-100 -70.5
t-117 -48t-128.5 -21zM210 112q38 0 75 18.5t72 53.5q21 60 21 115q0 35 -8.5 66.5t-25 55t-39.5 37.5t-53 14q-33 0 -61.5 -18t-49.5 -48t-33.5 -70t-12.5 -83q0 -65 30 -103t85 -38z" />
    <glyph glyph-name="colon" unicode=":" horiz-adv-x="180" 
d="M114 296q-20 0 -33 14.5t-13 32.5q0 17 13 30.5t33 13.5t33 -13.5t12 -30.5q0 -18 -12.5 -32.5t-32.5 -14.5zM56 -14q-20 0 -33.5 14t-12.5 32q0 17 13.5 30.5t33.5 13.5t32.5 -13.5t11.5 -30.5q0 -18 -12.5 -32t-32.5 -14z" />
    <glyph glyph-name="semicolon" unicode=";" horiz-adv-x="167" 
d="M108 296q-20 0 -33 14t-13 32t13.5 31.5t33.5 13.5t32.5 -13.5t12.5 -31.5q-1 -18 -13.5 -32t-32.5 -14zM-35 -106q14 7 30 18t30 25t23 31.5t10 39.5q1 26 -18.5 38t-38.5 4q-3 20 10 35.5t38 15.5q27 0 43.5 -18.5t15.5 -46.5q-1 -23 -13 -46t-30.5 -43t-43 -36
t-51.5 -25z" />
    <glyph glyph-name="less" unicode="&#x3c;" horiz-adv-x="438" 
d="M17 228v14l397 193l8 -20l-368 -177v-4l368 -179l-8 -20z" />
    <glyph glyph-name="equal" unicode="=" horiz-adv-x="448" 
d="M30 333h396l-3 -22h-390zM33 160h390l3 -22h-396z" />
    <glyph glyph-name="greater" unicode="&#x3e;" horiz-adv-x="438" 
d="M32 35l-8 20l368 179v4l-368 177l8 20l397 -193v-14z" />
    <glyph glyph-name="question" unicode="?" horiz-adv-x="303" 
d="M137 179q-11 9 -23 21.5t-21.5 26.5t-16 28.5t-6.5 27.5q0 36 26.5 63t97.5 55q32 12 53.5 22t34.5 20t18.5 21t5.5 25q0 15 -7.5 31.5t-24 30t-43.5 22.5t-65 9q-20 0 -36 -2.5t-27 -4.5q-4 6 -4 14q0 51 72 51q34 0 62 -11.5t48 -31.5t31 -46.5t11 -55.5
q0 -30 -6.5 -51.5t-21.5 -38t-39 -29.5t-58 -26q-21 -8 -39 -15.5t-31.5 -17.5t-21 -22t-7.5 -29q0 -23 16.5 -46.5t35.5 -41.5zM104 -14q-20 0 -33.5 14t-13.5 32q0 17 14 30t34 13t32 -13t12 -30q0 -18 -12.5 -32t-32.5 -14z" />
    <glyph glyph-name="at" unicode="@" horiz-adv-x="786" 
d="M400 -110q-80 0 -146.5 26t-114.5 72.5t-74.5 111t-26.5 140.5q0 82 30.5 155t83.5 127.5t124 86.5t152 32q71 0 133 -23t107.5 -65t72 -99.5t26.5 -126.5q0 -53 -18.5 -102.5t-49.5 -87t-72 -60t-86 -22.5t-72 20.5t-26 52.5q0 7 3.5 26.5t9 42.5t12 44.5t11.5 31.5h-4
q-28 -44 -53 -81.5t-48 -65t-44 -43t-41 -15.5q-17 0 -32.5 7t-27.5 19.5t-19 29t-7 34.5q0 35 13.5 72.5t35 73t48 67t51.5 55.5q19 17 40.5 27.5t42.5 10.5q31 0 51 -22t24 -65h3l36 104l46 -3l-71 -190l-23 -100q-12 -33 -13.5 -54t6 -33t23.5 -17t37 -5q37 0 72.5 19.5
t63.5 53.5t44.5 78.5t16.5 95.5q0 66 -25 121t-68.5 95t-102.5 62t-127 22q-77 0 -145 -31t-118.5 -83.5t-80 -122t-29.5 -147.5q0 -73 25.5 -135t71.5 -107t110 -70t141 -25q42 0 81.5 10.5t73.5 29.5t61.5 44.5t45.5 54.5l9 -11q-19 -30 -47.5 -56t-63.5 -45.5t-76 -30.5
t-86 -11zM310 105q16 0 35.5 15t41 42t44 63.5t45.5 78.5q7 13 13 28t6 24q-2 12 -10 26.5t-20 27t-25.5 20.5t-25.5 8q-16 0 -29.5 -7.5t-27.5 -19.5q-19 -18 -37.5 -46t-33.5 -60.5t-24 -66.5t-9 -62q0 -32 18.5 -51.5t38.5 -19.5z" />
    <glyph glyph-name="A" unicode="A" horiz-adv-x="588" 
d="M180 260l-85 -167q-14 -24 -20.5 -38t-4.5 -21.5t13.5 -10.5t34.5 -5l37 -4l2 -14h-206l3 14l32 3q18 2 29 6t22 16.5t25.5 36.5t38.5 66l225 436l-3 23q10 5 26.5 14.5t24.5 18.5h8l85 -566q2 -15 4.5 -24.5t7 -15t12 -8t20.5 -3.5l39 -3l2 -14h-226l3 14l42 2
q16 1 29.5 6.5t11.5 18.5l-31 219h-201zM378 279l-40 282h-3l-145 -282h188z" />
    <glyph glyph-name="B" unicode="B" horiz-adv-x="547" 
d="M-6 14l50 5q37 4 38 13l106 563q1 5 -5.5 7t-34.5 5l-40 4l-1 14h229q42 0 77 -10t60.5 -28t39.5 -43t14 -55q0 -25 -10.5 -50.5t-34 -47t-62 -36t-94.5 -17.5v-3q45 -7 77.5 -21.5t53.5 -34.5t31 -44t10 -50q0 -47 -19.5 -81.5t-54.5 -57.5t-84 -34.5t-108 -11.5h-241z
M232 16q3 0 16.5 0.5t16.5 0.5q42 1 74 15.5t53.5 37.5t32 53.5t10.5 64.5q0 31 -12 57t-37 45.5t-63.5 30.5t-90.5 11h-33l-58 -305q2 0 16 -2t29.5 -4t29.5 -3.5t16 -1.5zM285 345q85 0 131 42t46 111q0 109 -146 109h-65l-49 -257q16 -2 42 -3.5t41 -1.5z" />
    <glyph glyph-name="C" unicode="C" horiz-adv-x="641" 
d="M344 -15q-68 0 -122.5 20.5t-92.5 56.5t-59 86.5t-21 110.5q0 76 27 144.5t75.5 121t115 83.5t145.5 31q57 0 101.5 -14t76.5 -35l51 16l-23 -176h-13l-25 141q-23 19 -67.5 35.5t-95.5 16.5q-69 0 -125 -32t-96 -84.5t-61.5 -120.5t-21.5 -140q0 -54 15 -99t44 -77.5
t72 -50.5t100 -18q62 0 107.5 26t87.5 70l39 66h13l-61 -155l-34 2q-30 -9 -70 -17t-82 -8z" />
    <glyph glyph-name="D" unicode="D" horiz-adv-x="634" 
d="M-6 14l50 5q37 4 38 13l106 563q1 5 -5.5 7t-34.5 5l-40 4l-1 14h234q65 0 117 -20.5t89 -56.5t56.5 -86.5t19.5 -110.5q0 -78 -27.5 -142.5t-79.5 -111t-127 -72t-169 -25.5h-229zM244 17q75 1 133.5 28t99 74t61.5 110.5t21 137.5q0 112 -56.5 177t-175.5 65h-76
l-110 -583z" />
    <glyph glyph-name="E" unicode="E" horiz-adv-x="556" 
d="M-8 14l52 5q20 2 28.5 5t9.5 8l106 563q1 5 -5.5 7t-34.5 5l-43 4l-1 14h426l5 -163h-12l-5 44q-9 30 -19 49.5t-26.5 31.5t-42.5 17t-67 5h-112l-52 -272h88q31 0 48.5 3t27.5 9.5t16 17.5t14 28l13 28l11 -1l-41 -191l-11 1l2 28q1 20 0.5 31.5t-9 17.5t-27 8t-52.5 2
l-82 2l-58 -302l125 -3q52 0 87.5 9t59.5 24t41 35.5t32 45.5l18 42l15 -1l-70 -171h-458z" />
    <glyph glyph-name="F" unicode="F" horiz-adv-x="523" 
d="M-8 14l52 5q20 2 28.5 5t9.5 8l106 563q1 5 -5.5 7t-34.5 5l-43 4l-1 14h433l3 -169l-14 -1l-3 42q-6 29 -14 50t-26 35t-49 20.5t-82 6.5h-101l-53 -278h86q31 1 49 3.5t28.5 8.5t16.5 17t13 29l12 28l11 -1l-41 -191l-10 1l1 28q0 20 -1 31.5t-9 17.5t-26 8t-51 2
l-82 2l-53 -285q-1 -5 5.5 -7.5t34.5 -4.5l62 -4l1 -14h-256z" />
    <glyph glyph-name="G" unicode="G" horiz-adv-x="660" 
d="M341 -15q-66 0 -119.5 21t-92 57.5t-59.5 87.5t-21 111q0 74 26.5 142.5t74 121t114 84t147.5 31.5q58 0 101.5 -14.5t74.5 -34.5l55 17l-30 -174l-12 1l-23 138q-24 20 -68 35t-93 15q-69 0 -124.5 -32t-95.5 -84t-61.5 -118.5t-21.5 -134.5q0 -54 16 -100.5t46 -80.5
t72.5 -53t95.5 -19q34 0 68.5 8.5t56.5 19.5l40 212q1 5 -6.5 7.5t-36.5 4.5l-53 4l-1 14h243l-4 -14l-48 -5q-37 -4 -38 -13l-39 -201l63 4v-10q-26 -8 -56.5 -16.5t-62.5 -15.5t-65 -11.5t-63 -4.5z" />
    <glyph glyph-name="H" unicode="H" horiz-adv-x="698" 
d="M-6 14l50 5q37 4 38 13l106 563q1 5 -5.5 7t-34.5 5l-40 4l-1 14h234l-4 -14l-51 -5q-20 -2 -28.5 -5t-9.5 -8l-50 -265h342l51 267q1 5 -5.5 7t-34.5 5l-42 4l-2 14h234l-4 -14l-48 -5q-37 -4 -38 -13l-107 -563q-1 -5 5.5 -7t35.5 -5l39 -4l2 -14h-234l3 14l52 5
q20 2 28.5 5t9.5 8l52 278h-342l-54 -280q-1 -5 5.5 -7t35.5 -5l42 -4l2 -14h-235z" />
    <glyph glyph-name="I" unicode="I" horiz-adv-x="314" 
d="M1 14l52 5q20 2 29 5t10 8l106 563q1 5 -5.5 7t-34.5 5l-43 4l-1 14h237l-4 -14l-52 -5q-20 -2 -28.5 -5t-9.5 -8l-106 -563q-1 -5 5.5 -7t34.5 -5l43 -4l1 -14h-237z" />
    <glyph glyph-name="J" unicode="J" horiz-adv-x="307" 
d="M-32 -122q-35 0 -54 14t-18 37q1 19 13.5 31t29.5 12q13 0 23 -8t15 -19t3 -24.5t-14 -24.5q45 -5 82.5 36.5t54.5 136.5l102 526q1 5 -5.5 7t-34.5 5l-45 4l-1 14h239l-4 -14l-51 -5q-20 -2 -28.5 -5t-9.5 -8l-106 -538q-4 -23 -21 -53.5t-43 -58t-58.5 -46.5t-68.5 -19
z" />
    <glyph glyph-name="K" unicode="K" horiz-adv-x="636" 
d="M-6 14l50 5q37 4 38 13l106 563q1 5 -5.5 7t-34.5 5l-40 4l-1 14h234l-4 -14l-51 -5q-20 -2 -28.5 -5t-9.5 -8l-61 -323l248 215q50 42 76 65.5t32 35.5t-5 15.5t-34 5.5l-45 4l-1 14h225l-3 -14l-27 -2q-20 -2 -30.5 -4t-27 -13.5t-48.5 -38.5t-95 -78l-95 -83l145 -323
q7 -18 13 -28t12 -15t14 -6.5t20 -2.5l32 -3l2 -14h-219l3 14l36 3q27 2 30 15t-1 23l-131 300l-130 -110l-42 -215q-1 -5 5.5 -7t35.5 -5l42 -4l2 -14h-235z" />
    <glyph glyph-name="L" unicode="L" horiz-adv-x="527" 
d="M-6 14l50 5q20 2 28.5 5.5t9.5 7.5l106 563q1 5 -5.5 7t-34.5 5l-40 4l-1 14h251l-3 -14l-69 -5q-20 -2 -28.5 -5t-9.5 -8l-109 -573l105 -3q52 1 85.5 9.5t56 23.5t36.5 35.5t28 45.5l20 50l15 -1l-59 -180h-435z" />
    <glyph glyph-name="M" unicode="M" horiz-adv-x="794" 
d="M-19 14l47 3q25 2 40.5 6.5t17.5 15.5l119 555q-5 6 -19.5 9t-29.5 5l-44 3l-2 14h167l93 -531l2 -1l318 532h153l-4 -14l-50 -5q-37 -4 -38 -13l-101 -563q0 -5 6.5 -7t34.5 -5l40 -4l1 -14h-236l3 14l55 5q20 2 28.5 5t9.5 8l97 549h-3l-345 -575h-12l-100 557
q-2 8 -4 13t-4 9l-116 -548q-3 -17 62 -20l39 -3l2 -14h-230z" />
    <glyph glyph-name="N" unicode="N" horiz-adv-x="670" 
d="M218 577h-2l-100 -540q-2 -8 10 -13t45 -7l38 -3l2 -14h-215l3 14l41 3q25 2 39.5 6.5t16.5 15.5l105 544q-6 9 -20.5 13.5t-44.5 9.5l-31 5l-2 14h155l269 -533h2l92 496q1 8 -10.5 13t-44.5 7l-38 3l-2 14h215l-4 -14l-40 -3q-25 -2 -40 -6.5t-17 -15.5l-113 -592h-15z
" />
    <glyph glyph-name="O" unicode="O" horiz-adv-x="692" 
d="M337 -14q-65 0 -117.5 23.5t-89.5 63.5t-57 93.5t-20 114.5q0 67 25 131t70 114.5t107 81t136 30.5q64 0 116.5 -23.5t89.5 -64t57.5 -94t20.5 -114.5q0 -75 -27.5 -140t-74 -113t-108 -75.5t-128.5 -27.5zM340 2q61 0 111 29t85 78.5t54 114.5t19 136q0 55 -14.5 103
t-42.5 83t-69.5 55.5t-95.5 20.5q-64 0 -114 -31.5t-84.5 -82.5t-52.5 -116t-18 -132q0 -55 14 -102t42 -81.5t69.5 -54.5t96.5 -20z" />
    <glyph glyph-name="P" unicode="P" horiz-adv-x="522" 
d="M-15 14l59 5q20 2 28.5 5t9.5 8l106 563q1 5 -5.5 7.5t-34.5 4.5l-50 4l-1 14h235q48 0 87.5 -11.5t67 -32t42.5 -49.5t15 -63q0 -39 -16.5 -72t-46.5 -57t-72.5 -37.5t-93.5 -13.5q-38 0 -69 6t-52 11l-53 -276q-1 -5 5.5 -8t35.5 -4l61 -4l2 -14h-263zM309 305
q78 0 124 46t46 128q0 60 -38 95t-119 35h-12.5h-23t-23 -0.5t-12.5 -0.5l-53 -283q22 -8 49.5 -14t61.5 -6z" />
    <glyph glyph-name="Q" unicode="Q" horiz-adv-x="692" 
d="M555 -183q-37 0 -76 6.5t-75 25.5t-65.5 52.5t-46.5 87.5q-55 8 -99 33t-75 63.5t-48 88.5t-17 107q0 67 25 131t70 114.5t107 81t136 30.5q64 0 116.5 -23.5t89.5 -64t57.5 -94.5t20.5 -114q0 -71 -24.5 -133t-66.5 -109t-97.5 -77t-118.5 -36q15 -48 38 -78.5t55.5 -47
t76 -21.5t98.5 -3v-13q-17 -4 -37.5 -5.5t-43.5 -1.5zM340 1q61 0 111 29.5t85 79t54 114.5t19 136q0 55 -14.5 103t-42.5 83t-69.5 55.5t-95.5 20.5q-64 0 -114 -31.5t-84.5 -82.5t-52.5 -116t-18 -132q0 -55 14 -102t42 -82t69.5 -55t96.5 -20z" />
    <glyph glyph-name="R" unicode="R" horiz-adv-x="590" 
d="M-15 14l59 5q11 1 24 4.5t14 8.5l106 563q1 5 -5.5 7.5t-34.5 4.5l-50 4l-1 14h251q45 0 81 -11t61.5 -30.5t39.5 -45.5t14 -57q0 -36 -15.5 -65.5t-42 -52t-62 -37t-74.5 -19.5l106 -240q7 -16 13 -25.5t13 -15t15.5 -7t19.5 -2.5l27 -3l3 -14h-127l-129 305q-8 1 -21 3
t-26.5 4.5t-26 6t-19.5 6.5l-57 -295q-1 -5 13.5 -8t27.5 -4l49 -4l2 -14h-251zM316 320q35 2 65 14.5t52 34t34.5 51.5t12.5 66q0 57 -39 90.5t-110 32.5l-81 -2l-49 -264q9 -4 24 -8t31.5 -7.5t32.5 -5.5t27 -2z" />
    <glyph glyph-name="S" unicode="S" horiz-adv-x="466" 
d="M205 -15q-25 0 -51 4t-51 11.5t-47.5 16.5t-40.5 20l14 147l12 -1l10 -71q16 -53 58.5 -82t99.5 -29q36 0 66 9t52 26t34.5 43t12.5 61q0 27 -8 48t-25 40t-43 37.5t-61 40.5q-27 17 -51.5 35t-43 38.5t-29 45t-10.5 54.5q0 40 15 70t41.5 50.5t61.5 31t75 10.5
q36 0 67 -9t52 -21l50 9l-23 -163l-13 1l-27 130q-18 17 -48 27.5t-59 10.5q-65 0 -105 -32.5t-40 -88.5q0 -26 8.5 -46t25 -38t40.5 -35t56 -37q27 -17 53 -35.5t45.5 -39.5t31.5 -46.5t12 -57.5q0 -43 -16 -77t-44.5 -58t-68.5 -37t-88 -13z" />
    <glyph glyph-name="T" unicode="T" horiz-adv-x="605" 
d="M137 14l62 5q20 2 28.5 5t9.5 8l108 577h-77q-35 -2 -58 -9.5t-39.5 -20t-28.5 -29.5t-24 -38l-18 -46h-15l45 159h499l-17 -160h-12l-2 46q-4 30 -10.5 48.5t-19.5 29t-35 14.5t-58 6h-69l-110 -579q-1 -5 5.5 -7.5t34.5 -4.5l53 -4l2 -14h-257z" />
    <glyph glyph-name="U" unicode="U" horiz-adv-x="665" 
d="M326 -16q-50 0 -91.5 11t-71 32.5t-45.5 53.5t-16 75q0 37 9 79l69 360q1 5 -5.5 7.5t-35.5 4.5l-49 4l-2 14h251l-3 -14l-59 -5q-20 -2 -28.5 -5t-9.5 -8l-69 -366q-3 -17 -5 -33.5t-2 -32.5q0 -72 47 -109t138 -37q78 0 128 47.5t69 147.5l71 378q2 8 -11 13t-46 7
l-38 3l-2 14h216l-4 -14l-40 -3q-25 -2 -39 -6.5t-16 -15.5l-73 -380q-21 -114 -81.5 -168t-155.5 -54z" />
    <glyph glyph-name="V" unicode="V" horiz-adv-x="605" 
d="M154 557q-5 29 -12 39t-32 12l-39 3l-2 14h227l-4 -14l-41 -2q-17 -1 -30.5 -6.5t-11.5 -18.5l86 -513h1l241 462q13 23 20 37t5 21.5t-13.5 10.5t-34.5 5l-37 4l-1 14h205l-3 -14l-31 -3q-18 -2 -29 -6t-22.5 -16.5t-26 -36.5t-38.5 -66l-257 -492h-21z" />
    <glyph glyph-name="W" unicode="W" horiz-adv-x="917" 
d="M150 557q-5 29 -12 39t-32 12l-39 3l-1 14h229l-4 -14l-45 -2q-16 -1 -29.5 -6.5t-11.5 -18.5l81 -513h2l211 410l-13 76q-5 29 -12 39t-32 12l-40 3l-2 14h230l-4 -14l-45 -2q-16 -1 -29.5 -6.5t-11.5 -18.5l76 -512h2l232 462q13 24 19.5 37.5t4 21t-14.5 10t-35 4.5
l-37 4l-2 14h206l-4 -14l-31 -3q-18 -2 -28.5 -6t-21 -16.5t-24 -37t-37.5 -66.5l-247 -491h-20l-73 455h-2l-237 -455h-21z" />
    <glyph glyph-name="X" unicode="X" horiz-adv-x="615" 
d="M-42 14l33 2q18 1 30.5 4t25.5 12t29.5 25.5t41.5 45.5l178 208l-116 244q-12 29 -23 40t-34 13l-33 3l-1 14h228l-4 -13l-47 -2q-26 -1 -31.5 -11.5t5.5 -34.5l99 -207h1l147 175q24 27 33 42t7 22t-14.5 8.5t-31.5 3.5l-41 3l-1 14h228l-4 -14l-32 -2q-17 -1 -28.5 -3
t-23.5 -9.5t-28 -23t-41 -44.5l-160 -187l131 -272q6 -13 10 -22.5t10 -16t14.5 -10t22.5 -4.5l33 -3l2 -14h-230l3 14l49 2q25 1 30 10.5t-6 34.5l-112 235h-1l-164 -195q-23 -27 -33.5 -43t-10 -24.5t11.5 -11.5t31 -4l40 -4l2 -14h-228z" />
    <glyph glyph-name="Y" unicode="Y" horiz-adv-x="593" 
d="M132 14l63 5q20 2 28.5 5t9.5 8l46 245l-113 278q-5 13 -9 22.5t-9.5 16t-14.5 10t-23 4.5l-35 3l-2 14h232l-4 -14l-48 -2q-25 -1 -30 -9.5t4 -34.5l104 -263h2l163 222q20 28 29.5 44t8 24.5t-13 11t-33.5 4.5l-39 3l-1 14h219l-4 -14l-32 -2q-17 -1 -28.5 -3.5
t-22.5 -11.5t-25.5 -25.5t-36.5 -46.5l-177 -239l-48 -253q-1 -5 5.5 -7.5t35.5 -4.5l52 -4l1 -14h-257z" />
    <glyph glyph-name="Z" unicode="Z" horiz-adv-x="535" 
d="M-8 11l506 595v2l-188 1q-41 0 -69 -7.5t-48 -22t-35 -36.5t-30 -52l-14 -43h-14l40 177h435l-2 -11l-504 -595l-1 -2l183 -1q52 0 87 9t59.5 26.5t41.5 42t32 56.5l18 47h16l-64 -197h-451z" />
    <glyph glyph-name="bracketleft" unicode="[" horiz-adv-x="325" 
d="M127 633h245l-1 -18h-224l-127 -835h224l-2 -17h-245z" />
    <glyph glyph-name="backslash" unicode="\" horiz-adv-x="246" 
d="M0 639h19l211 -875h-19z" />
    <glyph glyph-name="bracketright" unicode="]" horiz-adv-x="325" 
d="M-54 -220h224l127 835h-224l1 18h245l-130 -870h-245z" />
    <glyph glyph-name="asciicircum" unicode="^" 
d="M260 665h26l79 -177h-8l-91 122h-3l-138 -122h-10z" />
    <glyph glyph-name="underscore" unicode="_" horiz-adv-x="453" 
d="M-26 -1h423l-2 -33h-428z" />
    <glyph glyph-name="grave" unicode="`" 
d="M138 679h64l84 -184h-10z" />
    <glyph glyph-name="a" unicode="a" horiz-adv-x="426" 
d="M276 -14q-15 0 -27.5 18.5t-12.5 37.5q0 16 11 52t36 105h-5q-24 -39 -47.5 -77t-47 -68t-46 -48.5t-43.5 -18.5q-36 0 -58 30t-22 75q0 39 13.5 81.5t35 83.5t48 77t51.5 61q20 20 43 32.5t45 12.5q30 0 50 -24.5t23 -65.5h3l27 94l47 -2l-67 -212l-58 -202l42 -6
l75 104l9 -8q-32 -61 -65 -96.5t-60 -35.5zM116 28q17 0 37.5 18t43 49t47 72.5t49.5 87.5q7 14 13.5 36t6.5 32q-3 12 -10.5 27t-19 27.5t-26.5 21.5t-33 9q-27 0 -54 -27q-19 -20 -37.5 -52.5t-33.5 -70.5t-24 -77t-9 -70q0 -42 15 -62.5t35 -20.5z" />
    <glyph glyph-name="b" unicode="b" horiz-adv-x="408" 
d="M143 -15q-22 0 -44.5 8t-39 22.5t-24.5 33t-2 39.5l146 531q2 8 0 14t-7 6l-81 4l2 12l151 18l-30 -115q-18 -60 -36 -119t-33.5 -109t-27 -87.5t-17.5 -54.5q-2 -7 0.5 -7.5t5.5 4.5q25 57 51.5 104.5t52.5 81.5t50 53t45 19q19 0 35 -9t26.5 -25t16.5 -36.5t6 -44.5
q0 -35 -10 -73.5t-26.5 -76t-39.5 -71.5t-48 -59q-29 -29 -60 -46t-62 -17zM155 3q20 0 39.5 10.5t39.5 29.5q21 21 39.5 52.5t33 68.5t22.5 75.5t8 74.5q0 40 -14.5 63.5t-40.5 24.5q-17 0 -38.5 -20t-45 -54.5t-48 -79.5t-47.5 -96q-5 -12 -9.5 -26t-8 -27t-5.5 -23.5
t-2 -15.5q3 -13 12 -23.5t20 -18t23.5 -11.5t21.5 -4z" />
    <glyph glyph-name="c" unicode="c" horiz-adv-x="330" 
d="M135 -13q-27 0 -48.5 11.5t-36.5 31t-23 45.5t-8 55q0 58 21 114.5t54.5 101t75 71.5t82.5 27q37 0 65 -18t28 -49q0 -19 -10.5 -30.5t-26.5 -11.5q-12 0 -22.5 8.5t-10.5 23.5q0 13 8 21t19 13q-8 10 -25 19t-37 9q-21 0 -39.5 -10.5t-33.5 -25.5q-18 -18 -35.5 -46.5
t-31 -61.5t-21.5 -69t-8 -70q0 -59 24.5 -91t60.5 -32q65 0 130 100l10 -8q-16 -25 -34.5 -48t-39 -41t-42.5 -28.5t-45 -10.5z" />
    <glyph glyph-name="d" unicode="d" horiz-adv-x="426" 
d="M276 -14q-15 0 -27.5 18.5t-12.5 37.5q0 17 11 53t36 104h-5q-24 -39 -47.5 -77t-47 -68t-46 -48.5t-43.5 -18.5q-36 0 -58 30t-22 75q0 39 13.5 82t35 84.5t48 78t51.5 61.5q20 20 43 32.5t45 12.5q30 0 48.5 -26t21.5 -71h4l72 273q2 7 1 13.5t-7 6.5l-95 4l2 12
l166 18l-107 -370l-81 -275l42 -6l75 103l9 -7q-32 -61 -65 -96.5t-60 -35.5zM116 28q17 0 37 18t42 47.5t45 67.5t45 78q13 26 20.5 50t7.5 34q-3 12 -10.5 27t-19 28.5t-26.5 23t-33 9.5q-14 0 -27 -7t-27 -20q-19 -20 -37.5 -53t-33.5 -71.5t-24 -78t-9 -70.5
q0 -42 15 -62.5t35 -20.5z" />
    <glyph glyph-name="e" unicode="e" horiz-adv-x="328" 
d="M135 -13q-27 0 -48.5 11.5t-36.5 31t-23 45.5t-8 55q0 59 20 115.5t52.5 100.5t73 71t81.5 27t67 -20.5t26 -47.5q0 -24 -13.5 -42.5t-44.5 -36t-80 -35.5t-119 -40q-11 -41 -11 -76q0 -59 24.5 -91t60.5 -32q65 0 130 100l10 -8q-16 -25 -34.5 -48t-39 -41t-42.5 -28.5
t-45 -10.5zM88 238q59 17 97.5 32t61 30.5t31.5 34t9 41.5q0 22 -14 37.5t-38 15.5q-17 0 -34.5 -10.5t-34.5 -26.5q-23 -22 -45 -63.5t-35 -89.5q0 -1 1 -1q1 -1 1 0z" />
    <glyph glyph-name="f" unicode="f" horiz-adv-x="245" 
d="M-72 -200q-35 0 -51.5 15t-16.5 35q0 18 11 28.5t25 10.5q10 0 18 -5t12 -14t2 -20.5t-11 -24.5q4 -2 10 -1t13 3t12.5 4t8.5 2q17 3 30 15t25.5 40.5t25 79.5t28.5 132l54 299l-78 1l7 27l80 5q17 74 37.5 121t45.5 73q23 24 48.5 34t53.5 10q31 0 52.5 -15.5
t21.5 -37.5q0 -19 -10.5 -29.5t-24.5 -10.5q-10 0 -18.5 5t-12 14t-2 20.5t11.5 24.5q-11 0 -21 1q-9 0 -18 0.5t-14 0.5q-19 -5 -33.5 -17.5t-26.5 -37.5t-22 -63.5t-21 -94.5l106 -1l-5 -30h-107l-61 -297q-24 -111 -49 -174t-55 -93q-19 -19 -39 -27t-42 -8z" />
    <glyph glyph-name="g" unicode="g" horiz-adv-x="373" 
d="M113 -236q-38 0 -73 8.5t-62 24t-43 36t-16 44.5q0 19 13 38.5t34 36t48 30t55 22.5v3q-35 14 -50.5 29.5t-15.5 38.5q0 14 8.5 27t22 23t30 17.5t33.5 10.5l1 2q-20 18 -34 46.5t-14 66.5q0 33 13.5 65t36 56.5t52.5 39.5t64 15q23 0 43.5 -8t37.5 -22l113 17l-13 -43
l-110 15v-3q17 -20 27.5 -44.5t10.5 -54.5q0 -32 -14.5 -62.5t-38 -54t-53.5 -38t-60 -14.5q-28 0 -48 14q-29 -6 -49.5 -21t-20.5 -31q0 -8 4 -15.5t15 -15t30.5 -15.5t49.5 -17l28 -9q32 -10 59.5 -22.5t47.5 -27.5t31.5 -33t11.5 -39q0 -27 -16 -52t-44 -43.5
t-65.5 -29.5t-79.5 -11zM156 145q18 0 35.5 8.5t31.5 22.5q27 28 42 71.5t15 99.5q0 16 -7 31t-17.5 26t-23 17.5t-24.5 6.5q-23 0 -52 -26q-13 -13 -24 -32t-19 -41t-12.5 -46t-4.5 -48q0 -50 26 -76q5 -5 14 -9.5t20 -4.5zM133 -218q31 0 58.5 7.5t47 20t31 29t11.5 35.5
q0 35 -34 58t-88 41q-17 6 -36.5 12t-37.5 13q-57 -20 -90 -48.5t-33 -63.5q0 -48 48 -76t123 -28z" />
    <glyph glyph-name="h" unicode="h" horiz-adv-x="430" 
d="M288 -13q-8 0 -18 4t-19 9.5t-15 12t-6 11.5q0 6 6.5 25.5t16.5 46.5t22.5 59.5t23.5 64.5q8 23 17 47.5t16 45.5t11.5 36.5t4.5 21.5q0 16 -13.5 27t-30.5 11q-11 0 -34.5 -25t-54 -68t-65 -102t-67.5 -126l-29 -91l-51 5q1 3 6.5 22t13 44t15.5 51t14 42q7 22 16.5 54
t20 68t21 75t20.5 77q24 87 49 184q2 8 0 14t-7 6l-81 4l2 12l151 18l-30 -115q-18 -60 -35.5 -121.5t-33.5 -116.5t-30 -99.5t-25 -71.5l7 -1q21 42 46 83t49 77t44.5 63t33.5 40q14 14 29 23t32 9q11 0 22.5 -5.5t21.5 -15t16 -21.5t6 -25q0 -19 -15.5 -63.5t-34.5 -95.5
l-71 -189l44 -6l76 104l9 -8q-32 -61 -64.5 -96t-52.5 -35z" />
    <glyph glyph-name="i" unicode="i" horiz-adv-x="234" 
d="M226 545q-16 0 -25 10t-9 26q0 20 12.5 36t26.5 16q17 0 26 -10t9 -25q0 -21 -12.5 -37t-27.5 -16zM87 -13q-8 0 -17.5 4t-18.5 9.5t-15 12t-6 11.5q0 1 5.5 18t15 44t21.5 61.5t25 69.5q29 83 67 187l-44 5l-75 -104l-9 8q32 61 65 96t60 35q15 0 28.5 -18t12.5 -38
q0 -4 -5.5 -21.5t-14.5 -43.5t-20.5 -58t-23.5 -65q-28 -77 -64 -172l44 -6l77 104l9 -8q-32 -61 -64.5 -96t-52.5 -35z" />
    <glyph glyph-name="j" unicode="j" horiz-adv-x="211" 
d="M222 544q-17 0 -26 10t-9 27q0 20 12.5 36t26.5 16q17 0 26 -10.5t9 -25.5q0 -21 -12.5 -37t-26.5 -16zM-104 -253q-21 0 -36.5 13t-15.5 31q0 14 9.5 25t26.5 11q10 0 18.5 -4.5t12.5 -12.5t2.5 -18.5t-10.5 -22.5l42 14q47 52 88 189l122 432l-42 5l-75 -104l-9 8
q32 61 65 96t60 35q7 0 14.5 -5t13 -13t9 -18t3.5 -20q0 -5 -6 -30t-16 -60.5t-22.5 -78.5t-25 -84t-24.5 -76.5t-20 -55.5q-26 -75 -51.5 -130.5t-53.5 -83.5q-17 -17 -38.5 -29.5t-40.5 -12.5z" />
    <glyph glyph-name="k" unicode="k" horiz-adv-x="402" 
d="M271 -14q-14 0 -30.5 7t-24.5 16q-2 52 -6 94.5t-11 72.5t-17.5 46.5t-24.5 16.5q-7 0 -20.5 -5.5t-18.5 -7.5l-68 -230l-50 5q1 3 7 22t14 44t16.5 51t13.5 42q7 22 16.5 54t20 68t21 75t20.5 77q24 88 49 185q2 8 0.5 14t-7.5 6l-81 4l3 12l150 18l-30 -115
q-28 -97 -50.5 -178t-41.5 -138q3 1 8 1t10 1q39 15 71.5 31.5t56.5 32.5t38.5 30t18.5 23l8 9q-15 3 -25 13.5t-10 24.5t11.5 24.5t25.5 10.5q15 0 25.5 -11.5t10.5 -27.5q0 -15 -6.5 -30.5t-21.5 -31.5t-40.5 -32t-63.5 -32l-60 -28q16 -1 30.5 -21t26 -52t19.5 -72.5
t10 -81.5l31 -1l70 111l9 -7q-12 -27 -25.5 -52.5t-27.5 -45t-27 -31t-23 -11.5z" />
    <glyph glyph-name="l" unicode="l" horiz-adv-x="212" 
d="M66 -13q-8 0 -17.5 4t-18 9.5t-14 12t-5.5 11.5q0 1 7 27.5t19 68.5t27.5 95t31.5 109q37 130 85 295q2 8 0.5 14t-6.5 6l-81 4l2 12l150 18l-192 -645l43 -6l78 104l9 -8q-32 -61 -64.5 -96t-53.5 -35z" />
    <glyph glyph-name="m" unicode="m" horiz-adv-x="683" 
d="M542 -13q-8 0 -17.5 4t-18.5 9.5t-15 12t-6 11.5q0 4 6.5 23.5t16.5 47t22.5 60.5t23.5 65q8 23 17 47t16 45t11.5 36t4.5 21q0 16 -17.5 28.5t-34.5 12.5q-11 0 -34 -25t-52 -68.5t-62.5 -102.5t-66.5 -126l-30 -91l-51 5l50 162q10 30 21.5 64t21.5 63.5t17 50.5t7 27
q0 16 -16 28.5t-33 12.5q-11 0 -33.5 -25t-51 -68.5t-61.5 -102.5t-66 -126l-29 -91l-51 5l49 159l69 243l-42 5l-75 -104l-9 8q32 62 65 97t60 35q7 0 14 -5t13 -13t9.5 -18t3.5 -20q0 -9 -5.5 -30.5t-15 -53t-22.5 -71t-28 -84.5l7 -1q21 42 44.5 82.5t46 76t41.5 62
t32 39.5q14 14 30.5 24.5t32.5 10.5q10 0 22 -6t22.5 -16t17 -23t6.5 -26q0 -9 -6.5 -30.5t-17 -51t-24.5 -65.5t-29 -76l7 -1q21 42 45 82.5t47 76t42.5 62t31.5 39.5q14 14 31 24.5t32 10.5q11 0 23.5 -6t23 -16t17.5 -23t7 -26q0 -19 -14.5 -62t-34.5 -94q-9 -24 -21 -57
t-23 -62q-13 -34 -26 -70l43 -6l77 105l9 -8q-32 -62 -64.5 -97t-52.5 -35z" />
    <glyph glyph-name="n" unicode="n" horiz-adv-x="458" 
d="M316 -13q-8 0 -18 4t-19 9.5t-15 12t-6 11.5q0 6 6.5 25.5t16.5 46.5t22.5 59.5t23.5 64.5q8 23 16.5 47.5t16 45.5t12 37t4.5 22q0 16 -13.5 27t-30.5 11q-11 0 -34.5 -25t-54 -68.5t-65 -102.5t-67.5 -126l-29 -91l-51 5l49 159l67 243l-41 5l-74 -104l-9 8
q32 62 65 97t60 35q7 0 14 -5t13 -13t9.5 -18t3.5 -20q0 -9 -5 -30.5t-14.5 -53t-22.5 -71t-28 -84.5l7 -2q21 42 46 83t49 77t44.5 63t33.5 41q14 14 29 23t32 9q11 0 22.5 -5.5t21.5 -15t16 -22t6 -25.5q0 -9 -4.5 -25.5t-11.5 -37.5t-16 -46t-19 -50q-9 -24 -20.5 -55
t-22 -59t-18.5 -49.5t-9 -25.5l44 -6l76 105l9 -8q-32 -62 -64.5 -97t-52.5 -35z" />
    <glyph glyph-name="o" unicode="o" horiz-adv-x="377" 
d="M141 -13q-33 0 -55 15t-35.5 38.5t-19.5 53.5t-6 60q0 48 17 99.5t45.5 93.5t65.5 69.5t78 27.5q29 0 51.5 -13.5t38 -37.5t23.5 -56.5t8 -69.5q0 -49 -17 -99t-46 -90t-67.5 -65.5t-80.5 -25.5zM135 3q24 0 46.5 14t42 38t35.5 55.5t27 66.5q9 29 14.5 65.5t5.5 64.5
q0 55 -17 87.5t-52 32.5q-24 0 -46 -17t-41 -44.5t-34.5 -62t-26.5 -68.5q-9 -30 -14 -65t-5 -54q0 -48 15.5 -80.5t49.5 -32.5z" />
    <glyph glyph-name="p" unicode="p" horiz-adv-x="425" 
d="M-97 -237l37 2q17 1 24 3t9 9l174 627l-41 5l-74 -104l-9 8q30 61 64 96t61 35q7 0 14 -5t13 -13t9.5 -18t3.5 -20q0 -9 -3.5 -24t-8.5 -32t-10.5 -34t-8.5 -29h5q9 19 25 48.5t37 57.5t45 48t48 20q42 0 64.5 -40t22.5 -101q0 -55 -17 -111t-47 -101.5t-70.5 -74.5
t-87.5 -29q-18 0 -31 6t-23 15.5t-17 21t-12 22.5h-2l-76 -275q-1 -5 7 -7.5t33 -3.5l49 -2l1 -14h-211zM187 0q20 0 37.5 11t33.5 27q23 23 40.5 55t29.5 67.5t18.5 72t6.5 68.5q0 48 -16 77t-43 30q-21 0 -44 -25t-46 -65.5t-46 -92.5t-43 -106q-1 -5 -4 -19.5t-3 -24.5
q3 -10 10 -23t17 -24.5t23.5 -19.5t28.5 -8z" />
    <glyph glyph-name="q" unicode="q" horiz-adv-x="404" 
d="M72 -237l50 2q23 1 30 5t9 9q4 15 12.5 47t19 70t21.5 77t20 66q5 16 9 30.5t8.5 31.5t12 40.5t19.5 57.5h-5q-24 -39 -47.5 -77t-47 -68t-46 -48.5t-43.5 -18.5q-36 0 -58 30t-22 75q0 39 13.5 82t35 84.5t48 78t51.5 61.5q20 20 43 32.5t45 12.5q30 0 48.5 -26
t21.5 -71h4l26 87l47 -4l-64 -199l-126 -453q-2 -6 8 -8t28 -4l36 -2l3 -14h-212zM116 28q17 0 37 18t42 47.5t45 67.5t45 78q13 26 20.5 50t7.5 34q-3 12 -10.5 27t-19 28.5t-26.5 23t-33 9.5q-14 0 -27 -7t-27 -20q-19 -20 -37.5 -53t-33.5 -71.5t-24 -78t-9 -70.5
q0 -42 15 -62.5t35 -20.5z" />
    <glyph glyph-name="r" unicode="r" horiz-adv-x="366" 
d="M31 2l52 159l64 243l-41 5l-74 -104l-9 8q32 62 65 97t60 35q7 0 14 -5t13 -13t9.5 -18t3.5 -20q0 -17 -14.5 -71.5t-43.5 -143.5h5q18 35 37 69.5t36 63.5t31 50t22 29q11 17 19.5 28.5t16.5 18t17 9.5t21 3q25 0 40 -17.5t15 -37.5q0 -18 -11.5 -29.5t-27.5 -11.5
q-8 0 -16 4.5t-12.5 12.5t-2.5 18.5t13 22.5l-26 11q-6 -3 -22.5 -24.5t-40.5 -59t-53.5 -88.5t-62.5 -112l-46 -137z" />
    <glyph glyph-name="s" unicode="s" horiz-adv-x="301" 
d="M115 -13q-49 0 -83 21t-34 57q0 18 10 30t24 12t23.5 -10t9.5 -24q0 -11 -7.5 -20.5t-17.5 -13.5q16 -14 39.5 -25.5t52.5 -12.5q22 2 37.5 10.5t25.5 21.5t14 28t4 30q0 16 -7 30t-17.5 27.5t-23.5 26.5l-26 26q-32 31 -55.5 59.5t-24.5 65.5q0 25 11.5 47t31 37.5
t43 24.5t47.5 9q44 0 73 -19t30 -55q0 -20 -11 -30.5t-25 -10.5t-22.5 9.5t-8.5 24.5q0 24 23 34q-15 14 -33.5 23t-40.5 9q-39 -3 -58.5 -28t-18.5 -57q0 -28 18.5 -51t50.5 -52q13 -12 28.5 -27t28 -31.5t21.5 -35t9 -39.5q0 -25 -12 -47t-31.5 -38.5t-45 -26t-52.5 -9.5z
" />
    <glyph glyph-name="t" unicode="t" horiz-adv-x="250" 
d="M87 -13q-8 0 -18.5 4t-20.5 10t-16 12.5t-4 12.5l100 373l-75 1l7 27l77 5l37 134h46l-37 -136l96 -1l-4 -30h-101l-101 -371l47 -6l75 104l9 -8q-32 -61 -63.5 -96t-53.5 -35z" />
    <glyph glyph-name="u" unicode="u" horiz-adv-x="458" 
d="M310 -14q-7 0 -14 5t-13 13.5t-9.5 18.5t-3.5 19t5 30.5t14 53.5t22 71.5t28 84.5l-7 2q-21 -42 -46 -83.5t-49 -77t-44.5 -63t-32.5 -40.5q-14 -14 -29.5 -23.5t-35.5 -9.5q-11 0 -22 5.5t-20 15t-14.5 21.5t-5.5 26q0 9 4.5 25.5t11.5 37.5t16 45.5t18 50.5l70 190
l-44 5l-76 -105l-9 8q32 63 64.5 97.5t53.5 34.5q7 0 17 -4t19 -9.5t15.5 -11.5t6.5 -11q0 -6 -6.5 -26t-16.5 -47t-22.5 -59.5t-23.5 -64.5q-8 -23 -17 -47.5t-16 -45.5t-11.5 -36.5t-4.5 -21.5q0 -17 13.5 -28t30.5 -11q11 0 34.5 25t54 68.5t65 102t67.5 125.5l31 92
l50 -5l-50 -159l-68 -242l41 -6l75 104l9 -8q-32 -61 -65 -96.5t-60 -35.5z" />
    <glyph glyph-name="v" unicode="v" horiz-adv-x="374" 
d="M125 -13q-17 0 -32 8t-26.5 21.5t-18.5 32t-7 39.5q0 48 34 127t92 176l-73 17l-70 -105l-9 7q30 63 57.5 100t48.5 37q9 0 22 -2t26 -5.5t22 -7t9 -6.5q0 -7 -8.5 -26.5t-20.5 -46t-27 -58.5t-27 -63.5t-20.5 -61.5t-8.5 -53q0 -22 8.5 -38t20.5 -26.5t25 -15.5t21 -5
q14 0 32.5 18t38 47.5t38.5 66.5t34.5 75t26.5 72.5t14 59.5q-8 -5 -18.5 -4.5t-19.5 5t-15 13.5t-6 22q0 15 11.5 26.5t28.5 11.5q22 0 34.5 -17t13.5 -45q0 -14 -11 -50t-29.5 -80t-43 -89.5t-52.5 -79.5q-13 -18 -28.5 -35.5t-30.5 -31t-29.5 -22t-26.5 -8.5z" />
    <glyph glyph-name="w" unicode="w" horiz-adv-x="572" 
d="M103 -13q-27 0 -46 23t-19 57q0 24 16.5 65.5t39.5 88.5t46.5 92t37.5 75l-82 20l-72 -105l-9 7q30 63 60 100t54 37q9 0 23.5 -2.5t29 -5.5t24.5 -6.5t10 -6.5q0 -7 -9.5 -29t-23.5 -52t-30.5 -65t-30.5 -68.5t-23.5 -62t-9.5 -46.5q0 -33 20 -48t38 -15q11 0 28.5 18.5
t38 47.5t42 65t41 71t35.5 65.5t25 48.5l-6.5 2.5t-14.5 8t-15 14.5t-7 23q0 17 11.5 28.5t30.5 11.5q17 0 29 -13t12 -31q0 -13 -6.5 -26.5t-17 -30t-22 -36.5t-20.5 -46q-17 -47 -23 -80t-6 -64q0 -20 6 -34.5t15.5 -24t21 -14t22.5 -4.5q14 0 31.5 18t36.5 46.5t37 64
t32.5 71.5t23 69t8.5 56q-17 -4 -34.5 7t-17.5 32q0 16 11.5 28.5t28.5 12.5q18 0 31.5 -14.5t13.5 -35.5q0 -20 -10.5 -60.5t-29 -87.5t-43.5 -94t-52 -79q-25 -34 -51.5 -60.5t-50.5 -26.5q-26 0 -45.5 22.5t-19.5 53.5t13.5 77.5t29.5 96.5q-29 -54 -56 -100t-53 -79
t-50.5 -52t-47.5 -19z" />
    <glyph glyph-name="x" unicode="x" horiz-adv-x="425" 
d="M39 -15q-21 0 -37 14t-16 33t10.5 30.5t24.5 11.5q17 0 23.5 -15.5t-3.5 -30.5q0 -5 9.5 -8t17.5 -3q11 0 28 20t35 49t34.5 62.5t27.5 59.5q-4 27 -11.5 61t-16 64t-17.5 51t-17 21h-24l-51 -86l-11 7q23 53 49.5 85t42.5 32q19 0 32.5 -14.5t24 -40t19 -60.5t17.5 -76
h2q23 51 41 87.5t35 59.5t34.5 34t39.5 11t37.5 -14t15.5 -34q0 -17 -10 -29t-24 -12q-17 0 -24 15t3 29q0 5 -9 8t-17 3q-11 0 -26.5 -17t-32 -43t-32 -57t-26.5 -59q4 -28 11.5 -64t16.5 -68.5t18.5 -55t17.5 -22.5l23 1l52 84l10 -7q-23 -52 -49.5 -84.5t-42.5 -32.5
q-20 0 -34.5 17t-25.5 45.5t-19.5 65t-15.5 75.5h-2q-25 -54 -44.5 -92.5t-37 -63t-36 -36t-40.5 -11.5z" />
    <glyph glyph-name="y" unicode="y" horiz-adv-x="406" 
d="M-20 -204q-36 0 -58 14t-22 40q1 17 11.5 28.5t27.5 11.5q22 0 31 -21t-6 -46l18 -4l25 -5q22 3 51.5 22.5t59 46.5t55.5 56.5t42 52.5q-7 76 -17.5 151t-23.5 133.5t-28 95t-30 36.5l-23 2l-67 -107l-10 8q29 61 54.5 98t54.5 37q26 0 46 -19t35 -64.5t25.5 -121.5
t19.5 -190q-1 2 0.5 2t2.5 -2q19 39 38.5 87t34.5 94.5t24 87.5t8 66q-12 -8 -23 -8t-20 5t-14.5 13t-5.5 17q0 15 10.5 26t27.5 11q22 0 34.5 -17.5t12.5 -45.5q0 -47 -15 -106t-41.5 -120t-62 -119t-75.5 -103q-24 -29 -49 -55t-51 -45.5t-53 -31t-54 -11.5z" />
    <glyph glyph-name="z" unicode="z" horiz-adv-x="349" 
d="M212 -19q-26 3 -49 18t-43.5 32t-38 31.5t-32.5 18.5l-6 -1l-27 -92q-16 3 -27 12t-11 22q0 20 16 36.5t33 22.5l251 262q-22 2 -43.5 12t-41 23t-35.5 25.5t-27 18.5q-2 1 -8.5 -5t-14 -13.5t-12.5 -14.5t-3 -7q26 -9 26 -34q0 -14 -9.5 -23.5t-24.5 -9.5q-16 0 -24 9.5
t-8 23.5q0 15 10.5 30.5t26.5 29.5t36 24t39 13q27 -3 46.5 -16t33 -28.5t22.5 -29t17 -18.5l6 1l25 92q15 -4 26.5 -10.5t11.5 -20.5q0 -9 -4.5 -19t-12 -19.5t-16 -16.5t-16.5 -10l-250 -260q28 -2 55 -11t51.5 -21t46 -26.5t38.5 -27.5q1 -1 7.5 4.5t14 12.5t12.5 13.5
t4 6.5q-15 5 -23 16.5t-8 22.5q0 14 10 23t26 9q14 0 22.5 -10.5t8.5 -25.5t-9.5 -31t-25 -29t-34.5 -22.5t-38 -12.5z" />
    <glyph glyph-name="braceleft" unicode="{" horiz-adv-x="316" 
d="M229 -245q-83 10 -126 52.5t-32 108.5q4 31 15.5 57.5t24 50.5t23.5 47.5t15 48.5q3 21 -5.5 36t-26 26t-43.5 18.5t-57 12.5l-5 11l7 10q27 0 53.5 3t48 10.5t36 21t17.5 35.5q4 25 0.5 49.5t-8 50t-7 52.5t2.5 59q11 66 64.5 100.5t139.5 32.5v-12q-75 -3 -109.5 -26.5
t-42.5 -67.5q-4 -26 -0.5 -50.5t8 -50.5t7 -53t-1.5 -57q-8 -48 -51.5 -75.5t-105.5 -32.5l-1 -7q29 -7 53 -19t40.5 -28.5t24 -37t4.5 -45.5q-5 -30 -16 -56t-23.5 -50.5t-23.5 -48.5t-15 -49q-8 -45 19.5 -73.5t99.5 -43.5z" />
    <glyph glyph-name="bar" unicode="|" horiz-adv-x="190" 
d="M86 670h18v-877h-18v877z" />
    <glyph glyph-name="braceright" unicode="}" horiz-adv-x="316" 
d="M-56 -230q75 3 109.5 27t42.5 69q4 25 0.5 50t-8 50.5t-7.5 52.5t2 57q8 48 51.5 75.5t105.5 32.5v7q-29 7 -53 18.5t-40.5 28t-24 37.5t-3.5 46q4 30 15.5 56.5t24 51t23.5 48t15 49.5q8 44 -19.5 72t-99.5 43l2 11q83 -11 126 -52.5t33 -107.5q-5 -32 -16 -58.5
t-23.5 -50.5t-23.5 -47.5t-15 -48.5q-6 -41 31.5 -62t100.5 -31l5 -10l-7 -11q-27 0 -53.5 -3t-48 -10.5t-36 -21t-17.5 -35.5q-4 -25 -0.5 -49.5t8 -50t7 -53t-2.5 -58.5q-11 -66 -64.5 -100.5t-139.5 -32.5v11z" />
    <glyph glyph-name="asciitilde" unicode="~" 
d="M248 156q-17 0 -35.5 9.5t-36.5 21.5t-35 21.5t-31 9.5q-17 0 -32 -10.5t-27 -44.5h-12q14 47 34 70.5t50 23.5q17 0 35.5 -9.5t36.5 -21.5t35 -21.5t31 -9.5q17 0 32.5 11t27.5 44h12q-15 -48 -34.5 -71t-50.5 -23z" />
    <glyph glyph-name="uni00A0" unicode="&#xa0;" horiz-adv-x="138" 
 />
    <glyph glyph-name="exclamdown" unicode="&#xa1;" horiz-adv-x="236" 
d="M186 545q-20 0 -32 13.5t-12 30.5q0 18 12.5 32t32.5 14t33 -14t14 -32q0 -17 -14 -30.5t-34 -13.5zM65 -18q-12 1 -17 6t-6 12.5t1.5 16t4.5 16.5l105 397q1 4 6.5 4t4.5 -4l-46 -401q-1 -8 -2.5 -16.5t-5.5 -16t-11 -11.5t-19 -3h-15z" />
    <glyph glyph-name="cent" unicode="&#xa2;" horiz-adv-x="329" 
d="M100 -7q-38 13 -59.5 50.5t-21.5 85.5q0 59 21 115.5t54.5 100.5t75 71t82.5 27q17 0 34 -5l74 176h18l-76 -181q20 -8 31.5 -22.5t11.5 -34.5q0 -19 -10.5 -30t-26.5 -11q-12 0 -22.5 8t-10.5 23q0 1 -1 2l-142 -341q11 -4 24 -4q65 0 130 99l10 -7q-16 -25 -34.5 -48
t-39 -41t-42.5 -28.5t-45 -10.5q-5 0 -9.5 0.5t-9.5 0.5l-61 -147h-18zM278 419q-17 10 -38 10t-39.5 -11t-33.5 -26q-18 -18 -35.5 -46t-31 -61t-21.5 -69t-8 -70q0 -42 13 -70t33 -42zM282 388q6 6 20 13q-3 5 -10 9z" />
    <glyph glyph-name="sterling" unicode="&#xa3;" horiz-adv-x="480" 
d="M67 282l6 17h103v31t1 29q1 55 18 104.5t46 86.5t69.5 58.5t88.5 21.5q49 0 80 -19t30 -50q-1 -14 -12 -26t-27 -12q-12 0 -20 6.5t-11 16t0 21.5t14 24q-11 10 -27.5 16.5t-36.5 6.5q-54 0 -92.5 -38.5t-51.5 -108.5q-8 -41 -9.5 -83t-3.5 -85h128v-17h-129
q-2 -17 -3.5 -35t-5.5 -35q-6 -33 -23 -71t-41 -71q43 -14 86 -27t78 -13q38 0 65.5 22.5t43.5 83.5l10 -3q-11 -69 -50 -108t-92 -39q-45 0 -84 19.5t-77 39.5q-24 -27 -51 -44t-56 -17q-26 0 -42 14t-14 36q1 24 21 42t55 18q19 0 41.5 -5t46.5 -13q16 26 25.5 55t10.5 55
q2 24 1.5 48.5t-0.5 47.5h-109zM123 53q-21 11 -41.5 17.5t-41.5 6.5q-25 0 -38 -12.5t-13 -32.5q-1 -14 11 -24t32 -10q26 0 49 15.5t42 39.5z" />
    <glyph glyph-name="currency" unicode="&#xa4;" horiz-adv-x="448" 
d="M72 213l57 57q-33 38 -33 89t33 89l-57 57l14 14l57 -57q18 15 40.5 24t48.5 9t48.5 -9t40.5 -24l57 57l14 -14l-57 -57q15 -18 24 -40.5t9 -48.5t-9 -48.5t-24 -40.5l57 -57l-14 -14l-57 57q-38 -33 -89 -33t-89 33l-57 -57zM116 359q0 -24 9 -45t25 -37t37 -25t45 -9
t45 9t37 25t25 37t9 45t-9 45t-25 37t-37 25t-45 9t-45 -9t-37 -25t-25 -37t-9 -45z" />
    <glyph glyph-name="yen" unicode="&#xa5;" horiz-adv-x="593" 
d="M86 284l-1 17h193l-106 254q-10 25 -19 38t-37 15l-36 3l-1 14h230l-4 -14l-47 -2q-26 -1 -31 -10t4 -34l102 -257h3l160 217q20 28 29 43.5t7.5 24t-13 11t-32.5 4.5l-39 3l-2 14h219l-4 -14l-32 -2q-17 -1 -28.5 -3.5t-22.5 -11.5t-25 -25.5t-36 -46.5
q-47 -63 -83 -111q-16 -21 -30.5 -40.5t-26.5 -35.5q-14 -18 -26 -34h179l-2 -17h-185l-22 -113h187l4 -18h-194l-24 -123q-1 -5 5.5 -7.5t34.5 -4.5l53 -4l1 -14h-257l3 14l63 5q20 2 28.5 5t9.5 8l23 121h-193l3 18h194l21 113h-197z" />
    <glyph glyph-name="brokenbar" unicode="&#xa6;" horiz-adv-x="190" 
d="M86 627h18v-335h-18v335zM86 181h18v-335h-18v335z" />
    <glyph glyph-name="section" unicode="&#xa7;" horiz-adv-x="413" 
d="M154 -50q-22 0 -42.5 6t-36 16t-24.5 23t-9 28q0 14 9.5 25.5t26.5 11.5q12 0 19.5 -7.5t9.5 -18t-2 -20.5t-15 -15q13 -15 31.5 -24.5t39.5 -9.5t38 7.5t29 19t18.5 25.5t6.5 28q0 21 -8 39t-22 34.5t-32.5 31t-38.5 28.5q-20 13 -38.5 28t-32.5 31.5t-22 35.5t-8 42
q0 24 11 45t28 38.5t38.5 30.5t41.5 21q-21 29 -21 65q0 23 10 45.5t27 40t41 28.5t53 11q21 0 41 -6t35 -16t24 -23t9 -28q0 -14 -9.5 -25.5t-26.5 -11.5q-12 0 -20 7.5t-10 17.5t1.5 20t14.5 16q-12 15 -27 24.5t-41 9.5q-19 0 -34.5 -7.5t-26 -19.5t-16 -27t-5.5 -30
q0 -20 8 -36.5t22 -31t31.5 -28t37.5 -26.5q21 -14 39.5 -29t32.5 -32t22.5 -36.5t8.5 -42.5q0 -24 -11 -44.5t-28.5 -38t-39.5 -31t-44 -23.5q11 -14 17 -31t6 -38q0 -23 -10.5 -45t-29 -39t-43.5 -28t-54 -11zM261 152q16 6 32 15.5t29 23t21 29.5t8 36q0 18 -7.5 34.5
t-20 31.5t-28.5 28t-34 24q-28 19 -48.5 34.5t-34.5 32.5q-16 -5 -31.5 -15t-27.5 -23t-19.5 -29.5t-7.5 -35.5q0 -33 23 -60t64 -55q23 -16 44.5 -33t37.5 -38z" />
    <glyph glyph-name="dieresis" unicode="&#xa8;" 
d="M331 513q-20 0 -30 13.5t-10 27.5t10 29t30 15t29.5 -15t9.5 -29t-9.5 -27.5t-29.5 -13.5zM173 513q-20 0 -29.5 13.5t-9.5 27.5t9.5 29t29.5 15t30 -15t10 -29t-10 -27.5t-30 -13.5z" />
    <glyph glyph-name="copyright" unicode="&#xa9;" horiz-adv-x="713" 
d="M365 -14q-68 0 -127.5 25.5t-104 70t-70 104t-25.5 127.5t25.5 127.5t70 104t104 70.5t127.5 26t127.5 -26t104 -70.5t70 -104t25.5 -127.5t-25.5 -127.5t-70 -104t-104 -70t-127.5 -25.5zM365 2q64 0 120.5 24.5t98.5 66.5t66.5 98.5t24.5 121.5q0 64 -24.5 121
t-66.5 99.5t-98.5 67t-120.5 24.5t-120.5 -24.5t-98.5 -67t-66.5 -99.5t-24.5 -121q0 -65 24.5 -121.5t66.5 -98.5t98.5 -66.5t120.5 -24.5zM374 117q-44 0 -80.5 14t-63 39.5t-41.5 60.5t-15 78t14.5 79t41.5 62.5t64 41.5t82 15q30 0 53.5 -6.5t41.5 -15.5l35 12l5 -107
h-8l-37 79q-12 8 -35 17.5t-57 9.5q-35 0 -64 -13.5t-50 -37.5t-32.5 -57.5t-11.5 -73.5q0 -41 12 -75t33 -59t51 -38.5t66 -13.5q43 0 69 17.5t47 49.5l18 41h9l-20 -96l-21 -2q-16 -7 -46.5 -14t-59.5 -7z" />
    <glyph glyph-name="ordfeminine" unicode="&#xaa;" horiz-adv-x="325" 
d="M123 287q-27 0 -43.5 22.5t-16.5 56.5q0 30 11 63t27.5 64.5t36.5 58.5t39 46q15 16 32.5 26t34.5 10q23 0 38 -19t17 -51l3 4l20 69l36 -2l-51 -163l-45 -154l31 -4l60 79l7 -5q-26 -48 -53 -74.5t-47 -26.5q-11 0 -19 14t-8 29q0 12 9 40.5t30 88.5l-3 1
q-20 -35 -39 -66t-37.5 -55t-36 -38t-33.5 -14zM140 318q13 0 28.5 14t32.5 37.5t35 55t35 67.5q5 11 10.5 28t5.5 24q-2 9 -6.5 20.5t-13 21.5t-19.5 16.5t-24 6.5q-11 0 -21 -5.5t-21 -16.5q-15 -15 -29 -39.5t-25 -53t-18 -58.5t-7 -54q0 -32 11.5 -48t25.5 -16z" />
    <glyph glyph-name="guillemotleft" unicode="&#xab;" horiz-adv-x="395" 
d="M177 217l2 14l217 159l4 -8l-161 -163l101 -158l-7 -7zM13 217l2 14l216 149l4 -8l-157 -154l100 -147l-6 -7z" />
    <glyph glyph-name="logicalnot" unicode="&#xac;" horiz-adv-x="448" 
d="M422 132h-22v158h-382l3 22h401v-180z" />
    <glyph glyph-name="uni00AD" unicode="&#xad;" horiz-adv-x="294" 
d="M24 255h242l-4 -28h-244z" />
    <glyph glyph-name="registered" unicode="&#xae;" horiz-adv-x="713" 
d="M365 -14q-68 0 -127.5 25.5t-104 70t-70 104t-25.5 127.5t25.5 127.5t70 104t104 70.5t127.5 26t127.5 -26t104 -70.5t70 -104t25.5 -127.5t-25.5 -127.5t-70 -104t-104 -70t-127.5 -25.5zM365 2q64 0 120.5 24.5t98.5 66.5t66.5 98.5t24.5 121.5q0 64 -24.5 121
t-66.5 99.5t-98.5 67t-120.5 24.5t-120.5 -24.5t-98.5 -67t-66.5 -99.5t-24.5 -121q0 -65 24.5 -121.5t66.5 -98.5t98.5 -66.5t120.5 -24.5zM204 139l38 4q8 0 15 3t7 6v327q0 3 -3.5 5t-20.5 3l-34 3l-3 10h154q66 0 101 -25.5t35 -67.5q0 -37 -27 -63.5t-67 -35.5l89 -138
q13 -19 21.5 -23t23.5 -6l17 -2l3 -10h-83l-11 18l-98 156q-10 2 -29.5 4t-29.5 4v-162q0 -3 9 -4.5t17 -2.5l36 -3l2 -10h-164zM361 316q39 2 64.5 24.5t25.5 63.5q0 40 -28.5 63t-82.5 21l-38 -1v-162q11 -4 29.5 -6.5t29.5 -2.5z" />
    <glyph glyph-name="macron" unicode="&#xaf;" 
d="M132 554h244l-7 -28h-245z" />
    <glyph glyph-name="degree" unicode="&#xb0;" horiz-adv-x="322" 
d="M216 360q-30 0 -55 10.5t-43 28.5t-28 43t-10 54t10.5 55.5t29.5 46.5t45 32t58 12q30 0 55.5 -10.5t43.5 -28.5t28 -43t10 -53q0 -30 -10.5 -56.5t-29.5 -47t-45.5 -32t-58.5 -11.5zM217 377q28 0 50 10t38 27t24.5 40.5t8.5 49.5q0 25 -8 46.5t-23 38t-36.5 26
t-48.5 9.5t-49.5 -10.5t-38.5 -28t-25 -41t-9 -48.5t8.5 -47t24 -38t37 -25t47.5 -9z" />
    <glyph glyph-name="plusminus" unicode="&#xb1;" horiz-adv-x="448" 
d="M217 246h-198l3 22h195v168h22v-168h195l3 -22h-198v-162h-22v162zM32 27l3 22h386l3 -22h-392z" />
    <glyph glyph-name="uni00B2" unicode="&#xb2;" horiz-adv-x="278" 
d="M-11 279q52 42 93.5 76.5t71 65t46.5 59.5t20 61q3 39 -18.5 60t-53.5 21q-28 0 -49 -13.5t-41 -36.5l-5 6q23 32 54.5 54t69.5 22q19 0 36.5 -7t29.5 -19.5t18.5 -29.5t5.5 -37q-2 -33 -21 -63.5t-50.5 -60.5t-72.5 -62.5t-87 -69.5q-1 -1 0 -1h124q32 0 51 13.5
t36 44.5l7 14h10l-43 -109h-232v12z" />
    <glyph glyph-name="uni00B3" unicode="&#xb3;" horiz-adv-x="266" 
d="M86 247q-16 0 -32 2.5t-28.5 7.5t-20 13.5t-7.5 20.5q0 11 9 19.5t22 8.5q16 0 27 -15.5t0 -36.5q8 -4 17.5 -6.5t20.5 -2.5q24 0 43.5 8.5t33.5 23.5t21.5 35t7.5 43q0 35 -22 56.5t-63 21.5q-13 0 -25 -2.5t-22 -5.5l-3 8q73 31 110 56.5t37 64.5q0 26 -18 42t-44 16
t-49 -14.5t-39 -35.5l-4 7q20 30 51.5 51t68.5 21q34 0 58.5 -19.5t24.5 -51.5q0 -20 -9.5 -36t-26 -29.5t-38 -24.5t-46.5 -20v-2q2 0 5 0.5t7 0.5q41 -2 66.5 -28t25.5 -63q0 -27 -13.5 -51t-35.5 -42.5t-51 -29.5t-59 -11z" />
    <glyph glyph-name="acute" unicode="&#xb4;" 
d="M346 679h69l-208 -184h-9z" />
    <glyph glyph-name="mu" unicode="&#xb5;" horiz-adv-x="498" 
d="M11 -251l3 14l34 2q17 2 24 3t7 8v626q0 5 -4.5 6.5t-32.5 3.5l-31 3l-3 13h124v-330q0 -18 8.5 -31t22.5 -22t32.5 -13t38.5 -4q42 0 70 14t54 43v289q0 23 -7.5 29.5t-29.5 8.5l-31 3l-3 13h125v-378q0 -13 4 -19.5t22 -8.5l45 -3l-2 -10l-123 -24l2 82h-2
q-9 -15 -21 -29t-27 -25.5t-34 -18.5t-42 -7q-33 0 -59.5 19t-40.5 42h-2v-272q0 -7 7 -8t24 -3l34 -2l3 -14h-189z" />
    <glyph glyph-name="paragraph" unicode="&#xb6;" horiz-adv-x="421" 
d="M357 299q-20 -5 -39 -5q-51 0 -95 8.5t-76.5 26.5t-51.5 46t-19 68q0 89 65.5 136t182.5 47h114l-123 -657h-19z" />
    <glyph glyph-name="periodcentered" unicode="&#xb7;" horiz-adv-x="182" 
d="M82 166q-20 0 -33.5 14t-12.5 33q0 17 13.5 30.5t33.5 13.5t32.5 -13.5t11.5 -30.5q0 -19 -12.5 -33t-32.5 -14z" />
    <glyph glyph-name="cedilla" unicode="&#xb8;" 
d="M10 -233q78 4 120.5 26t42.5 59q0 21 -18.5 34t-53.5 13q-13 0 -29.5 -3l-27.5 -5l2 8l108 99h16l-76 -69q54 6 85.5 -12.5t31.5 -51.5q0 -26 -15.5 -46t-42 -33.5t-63 -20.5t-78.5 -7z" />
    <glyph glyph-name="uni00B9" unicode="&#xb9;" horiz-adv-x="249" 
d="M25 276l37 3q26 3 27 11l63 329l-71 9l3 8l119 13l-70 -360q-1 -4 4 -6.5t23 -3.5l33 -3l1 -9h-171z" />
    <glyph glyph-name="ordmasculine" unicode="&#xba;" horiz-adv-x="288" 
d="M160 288q-25 0 -41.5 11.5t-27 29.5t-15 40.5t-4.5 45.5q0 37 13 76.5t35 71.5t50.5 53t59.5 21q22 0 39 -10.5t29 -29t18 -43t6 -52.5q0 -38 -13 -76t-35.5 -69t-52 -50t-61.5 -19zM155 300q18 0 35.5 10.5t33 28.5t27.5 42t20 51q7 23 11 51.5t4 49.5q0 42 -12.5 67
t-39.5 25q-18 0 -35 -13t-31.5 -34t-26.5 -47.5t-20 -53.5q-8 -23 -11.5 -50t-3.5 -41q0 -37 11.5 -61.5t37.5 -24.5z" />
    <glyph glyph-name="guillemotright" unicode="&#xbb;" horiz-adv-x="395" 
d="M160 72l158 152l-102 147l6 8l161 -153l-2 -13l-217 -149zM-4 62l161 162l-102 158l7 8l157 -164l-2 -13l-217 -159z" />
    <glyph glyph-name="onequarter" unicode="&#xbc;" horiz-adv-x="627" 
d="M492 -27h-164v7l241 270h19l-46 -245h67l-13 -32h-61l-22 -109h-41zM498 5l36 187h-2l-168 -187h134zM25 276l37 3q26 3 27 11l63 329l-71 9l3 8l119 13l-70 -360q-1 -4 4 -6.5t23 -3.5l33 -3l1 -9h-171zM657 630h27l-678 -751h-27z" />
    <glyph glyph-name="onehalf" unicode="&#xbd;" horiz-adv-x="651" 
d="M356 -125q52 42 93.5 76.5t71 65t46.5 59.5t20 61q3 39 -18.5 60t-53.5 21q-28 0 -49 -13.5t-41 -36.5l-5 6q23 32 54.5 54t69.5 22q19 0 36.5 -7t29.5 -19.5t18.5 -29.5t5.5 -37q-2 -33 -21 -63.5t-50.5 -60.5t-72.5 -62.5t-87 -69.5q-1 -1 0 -1h124q32 0 51 13.5
t36 44.5l7 14h10l-43 -109h-232v12zM657 630h27l-678 -751h-27zM25 276l37 3q26 3 27 11l63 329l-71 9l3 8l119 13l-70 -360q-1 -4 4 -6.5t23 -3.5l33 -3l1 -9h-171z" />
    <glyph glyph-name="threequarters" unicode="&#xbe;" horiz-adv-x="604" 
d="M469 -27h-164v7l241 270h19l-46 -245h67l-13 -32h-61l-22 -109h-41zM475 5l36 187h-2l-168 -187h134zM86 247q-16 0 -32 2.5t-28.5 7.5t-20 13.5t-7.5 20.5q0 11 9 19.5t22 8.5q16 0 27 -15.5t0 -36.5q8 -4 17.5 -6.5t20.5 -2.5q24 0 43.5 8.5t33.5 23.5t21.5 35t7.5 43
q0 35 -22 56.5t-63 21.5q-13 0 -25 -2.5t-22 -5.5l-3 8q73 31 110 56.5t37 64.5q0 26 -18 42t-44 16t-49 -14.5t-39 -35.5l-4 7q20 30 51.5 51t68.5 21q34 0 58.5 -19.5t24.5 -51.5q0 -20 -9.5 -36t-26 -29.5t-38 -24.5t-46.5 -20v-2q2 0 5 0.5t7 0.5q41 -2 66.5 -28
t25.5 -63q0 -27 -13.5 -51t-35.5 -42.5t-51 -29.5t-59 -11zM634 630h27l-678 -751h-27z" />
    <glyph glyph-name="questiondown" unicode="&#xbf;" horiz-adv-x="303" 
d="M233 550q-20 0 -32 13.5t-12 30.5q0 18 12.5 31.5t32.5 13.5t33.5 -14t13.5 -31q-1 -17 -14.5 -30.5t-33.5 -13.5zM167 -14q-34 0 -62 11.5t-48 31.5t-31 46t-11 55q0 30 6.5 51.5t21 38t38.5 30t59 26.5q21 8 39 15.5t31.5 17.5t21 22t7.5 29q-1 22 -17 45.5t-35 41.5
l14 -1q11 -9 23 -21.5t21.5 -26t16 -28t6.5 -27.5q0 -36 -26.5 -63.5t-98.5 -55.5q-32 -12 -53 -22t-34 -20t-18.5 -21t-5.5 -25q0 -15 7.5 -31.5t24 -30t43.5 -22.5t65 -9q20 0 36 2.5t27 5.5q2 -3 3 -6t1 -8q0 -51 -72 -51z" />
    <glyph glyph-name="Agrave" unicode="&#xc0;" horiz-adv-x="588" 
d="M180 260l-85 -167q-14 -24 -20.5 -38t-4.5 -21.5t13.5 -10.5t34.5 -5l37 -4l2 -14h-206l3 14l32 3q18 2 29 6t22 16.5t25.5 36.5t38.5 66l225 436l-3 23q10 5 26.5 14.5t24.5 18.5h8l85 -566q2 -15 4.5 -24.5t7 -15t12 -8t20.5 -3.5l39 -3l2 -14h-226l3 14l42 2
q16 1 29.5 6.5t11.5 18.5l-31 219h-201zM378 279l-40 282h-3l-145 -282h188zM245 851h64l84 -184h-10z" />
    <glyph glyph-name="Aacute" unicode="&#xc1;" horiz-adv-x="588" 
d="M180 260l-85 -167q-14 -24 -20.5 -38t-4.5 -21.5t13.5 -10.5t34.5 -5l37 -4l2 -14h-206l3 14l32 3q18 2 29 6t22 16.5t25.5 36.5t38.5 66l225 436l-3 23q10 5 26.5 14.5t24.5 18.5h8l85 -566q2 -15 4.5 -24.5t7 -15t12 -8t20.5 -3.5l39 -3l2 -14h-226l3 14l42 2
q16 1 29.5 6.5t11.5 18.5l-31 219h-201zM378 279l-40 282h-3l-145 -282h188zM482 851h69l-208 -184h-9z" />
    <glyph glyph-name="Acircumflex" unicode="&#xc2;" horiz-adv-x="588" 
d="M180 260l-85 -167q-14 -24 -20.5 -38t-4.5 -21.5t13.5 -10.5t34.5 -5l37 -4l2 -14h-206l3 14l32 3q18 2 29 6t22 16.5t25.5 36.5t38.5 66l225 436l-3 23q10 5 26.5 14.5t24.5 18.5h8l85 -566q2 -15 4.5 -24.5t7 -15t12 -8t20.5 -3.5l39 -3l2 -14h-226l3 14l42 2
q16 1 29.5 6.5t11.5 18.5l-31 219h-201zM378 279l-40 282h-3l-145 -282h188zM383 837h26l79 -177h-8l-91 122h-3l-138 -122h-10z" />
    <glyph glyph-name="Atilde" unicode="&#xc3;" horiz-adv-x="588" 
d="M180 260l-85 -167q-14 -24 -20.5 -38t-4.5 -21.5t13.5 -10.5t34.5 -5l37 -4l2 -14h-206l3 14l32 3q18 2 29 6t22 16.5t25.5 36.5t38.5 66l225 436l-3 23q10 5 26.5 14.5t24.5 18.5h8l85 -566q2 -15 4.5 -24.5t7 -15t12 -8t20.5 -3.5l39 -3l2 -14h-226l3 14l42 2
q16 1 29.5 6.5t11.5 18.5l-31 219h-201zM378 279l-40 282h-3l-145 -282h188zM434 677q-17 0 -35.5 9.5t-36.5 21.5t-35 21.5t-31 9.5q-17 0 -32 -10.5t-27 -44.5h-12q14 47 34 70.5t50 23.5q17 0 35.5 -9.5t36.5 -21.5t35 -21.5t31 -9.5q17 0 32.5 11t27.5 44h12
q-15 -48 -34.5 -71t-50.5 -23z" />
    <glyph glyph-name="Adieresis" unicode="&#xc4;" horiz-adv-x="588" 
d="M180 260l-85 -167q-14 -24 -20.5 -38t-4.5 -21.5t13.5 -10.5t34.5 -5l37 -4l2 -14h-206l3 14l32 3q18 2 29 6t22 16.5t25.5 36.5t38.5 66l225 436l-3 23q10 5 26.5 14.5t24.5 18.5h8l85 -566q2 -15 4.5 -24.5t7 -15t12 -8t20.5 -3.5l39 -3l2 -14h-226l3 14l42 2
q16 1 29.5 6.5t11.5 18.5l-31 219h-201zM378 279l-40 282h-3l-145 -282h188zM448 685q-20 0 -30 13.5t-10 27.5t10 29t30 15t29.5 -15t9.5 -29t-9.5 -27.5t-29.5 -13.5zM290 685q-20 0 -29.5 13.5t-9.5 27.5t9.5 29t29.5 15t30 -15t10 -29t-10 -27.5t-30 -13.5z" />
    <glyph glyph-name="Aring" unicode="&#xc5;" horiz-adv-x="588" 
d="M181 261l-87 -168q-14 -24 -20.5 -38t-4 -21.5t14 -10.5t34.5 -5l37 -4l2 -14h-206l3 14l32 3q18 2 29 6t22.5 16.5t26 36.5t38.5 66l243 473q-26 9 -41.5 32t-15.5 52q0 36 23.5 63t65.5 27q41 0 65.5 -27t23.5 -63q0 -35 -21.5 -60.5t-59.5 -27.5l82 -543
q2 -15 4.5 -24.5t7 -15t12 -8t20.5 -3.5l39 -3l2 -14h-226l3 14l42 2q16 1 29.5 6.5t11.5 18.5l-31 220h-200zM378 623q34 0 53.5 22.5t19.5 53.5q0 30 -19.5 53t-54.5 23q-34 0 -53.5 -23t-19.5 -53q0 -31 19.5 -53.5t54.5 -22.5zM378 279l-40 280h-3l-145 -280h188z" />
    <glyph glyph-name="AE" unicode="&#xc6;" horiz-adv-x="823" 
d="M203 261q-8 -11 -17 -23q-8 -11 -17.5 -24t-20.5 -27q-25 -33 -55 -73q-23 -29 -36 -46.5t-16 -28t6 -15t31 -6.5l47 -5l3 -13h-220l3 14l51 4q10 1 19 5t21.5 14.5t30.5 30.5t45 54l353 467q5 6 -2.5 11.5t-44.5 7.5l-51 3v14h472l4 -163h-12l-4 44q-9 30 -19 49.5
t-27 31.5t-43 17t-67 5h-111l-52 -272h88q31 0 48.5 3t27.5 9.5t16 17.5t14 28l13 28q-1 0 1 -0.5t4 -0.5h6l-42 -191l-10 1l1 28q1 20 0.5 31.5t-9 17.5t-27 8t-52.5 2l-82 2l-57 -302l125 -2q52 0 87 8.5t59.5 23.5t41.5 35.5t32 45.5l18 42l15 -1l-70 -171h-467l2 8
q1 4 3 8l59 5q20 2 28 5t9 8l43 227h-196zM402 279l60 318h-7q-66 -89 -119 -159q-23 -30 -44.5 -58.5t-38.5 -51.5q-20 -26 -37 -49h186z" />
    <glyph glyph-name="Ccedilla" unicode="&#xc7;" horiz-adv-x="641" 
d="M317 -14q-62 4 -111.5 26t-84 58t-53.5 84t-19 105q0 76 27 144.5t75.5 121t115 83.5t145.5 31q57 0 101.5 -14t76.5 -35l51 16l-23 -176h-13l-25 141q-23 19 -67.5 35.5t-95.5 16.5q-69 0 -125 -32t-96 -84.5t-61.5 -120.5t-21.5 -140q0 -54 15 -99t44 -77.5t72 -50.5
t100 -18q62 0 107.5 26t87.5 70l39 66h13l-61 -155l-34 2q-30 -9 -70 -17t-82 -8h-12l-62 -56q54 6 85.5 -12.5t31.5 -51.5q0 -26 -15.5 -46t-42 -33.5t-63 -20.5t-78.5 -7l-2 9q78 4 120.5 26t42.5 59q0 21 -18.5 34t-53.5 13q-13 0 -29.5 -3l-27.5 -5l2 8z" />
    <glyph glyph-name="Egrave" unicode="&#xc8;" horiz-adv-x="556" 
d="M-8 14l52 5q20 2 28.5 5t9.5 8l106 563q1 5 -5.5 7t-34.5 5l-43 4l-1 14h426l5 -163h-12l-5 44q-9 30 -19 49.5t-26.5 31.5t-42.5 17t-67 5h-112l-52 -272h88q31 0 48.5 3t27.5 9.5t16 17.5t14 28l13 28l11 -1l-41 -191l-11 1l2 28q1 20 0.5 31.5t-9 17.5t-27 8t-52.5 2
l-82 2l-58 -302l125 -3q52 0 87.5 9t59.5 24t41 35.5t32 45.5l18 42l15 -1l-70 -171h-458zM215 851h64l84 -184h-10z" />
    <glyph glyph-name="Eacute" unicode="&#xc9;" horiz-adv-x="556" 
d="M-8 14l52 5q20 2 28.5 5t9.5 8l106 563q1 5 -5.5 7t-34.5 5l-43 4l-1 14h426l5 -163h-12l-5 44q-9 30 -19 49.5t-26.5 31.5t-42.5 17t-67 5h-112l-52 -272h88q31 0 48.5 3t27.5 9.5t16 17.5t14 28l13 28l11 -1l-41 -191l-11 1l2 28q1 20 0.5 31.5t-9 17.5t-27 8t-52.5 2
l-82 2l-58 -302l125 -3q52 0 87.5 9t59.5 24t41 35.5t32 45.5l18 42l15 -1l-70 -171h-458zM460 851h69l-208 -184h-9z" />
    <glyph glyph-name="Ecircumflex" unicode="&#xca;" horiz-adv-x="556" 
d="M-8 14l52 5q20 2 28.5 5t9.5 8l106 563q1 5 -5.5 7t-34.5 5l-43 4l-1 14h426l5 -163h-12l-5 44q-9 30 -19 49.5t-26.5 31.5t-42.5 17t-67 5h-112l-52 -272h88q31 0 48.5 3t27.5 9.5t16 17.5t14 28l13 28l11 -1l-41 -191l-11 1l2 28q1 20 0.5 31.5t-9 17.5t-27 8t-52.5 2
l-82 2l-58 -302l125 -3q52 0 87.5 9t59.5 24t41 35.5t32 45.5l18 42l15 -1l-70 -171h-458zM357 837h26l79 -177h-8l-91 122h-3l-138 -122h-10z" />
    <glyph glyph-name="Edieresis" unicode="&#xcb;" horiz-adv-x="556" 
d="M-8 14l52 5q20 2 28.5 5t9.5 8l106 563q1 5 -5.5 7t-34.5 5l-43 4l-1 14h426l5 -163h-12l-5 44q-9 30 -19 49.5t-26.5 31.5t-42.5 17t-67 5h-112l-52 -272h88q31 0 48.5 3t27.5 9.5t16 17.5t14 28l13 28l11 -1l-41 -191l-11 1l2 28q1 20 0.5 31.5t-9 17.5t-27 8t-52.5 2
l-82 2l-58 -302l125 -3q52 0 87.5 9t59.5 24t41 35.5t32 45.5l18 42l15 -1l-70 -171h-458zM423 685q-20 0 -30 13.5t-10 27.5t10 29t30 15t29.5 -15t9.5 -29t-9.5 -27.5t-29.5 -13.5zM265 685q-20 0 -29.5 13.5t-9.5 27.5t9.5 29t29.5 15t30 -15t10 -29t-10 -27.5t-30 -13.5
z" />
    <glyph glyph-name="Igrave" unicode="&#xcc;" horiz-adv-x="314" 
d="M1 14l52 5q20 2 29 5t10 8l106 563q1 5 -5.5 7t-34.5 5l-43 4l-1 14h237l-4 -14l-52 -5q-20 -2 -28.5 -5t-9.5 -8l-106 -563q-1 -5 5.5 -7t34.5 -5l43 -4l1 -14h-237zM109 851h64l84 -184h-10z" />
    <glyph glyph-name="Iacute" unicode="&#xcd;" horiz-adv-x="314" 
d="M1 14l52 5q20 2 29 5t10 8l106 563q1 5 -5.5 7t-34.5 5l-43 4l-1 14h237l-4 -14l-52 -5q-20 -2 -28.5 -5t-9.5 -8l-106 -563q-1 -5 5.5 -7t34.5 -5l43 -4l1 -14h-237zM355 851h69l-208 -184h-9z" />
    <glyph glyph-name="Icircumflex" unicode="&#xce;" horiz-adv-x="314" 
d="M1 14l52 5q20 2 29 5t10 8l106 563q1 5 -5.5 7t-34.5 5l-43 4l-1 14h237l-4 -14l-52 -5q-20 -2 -28.5 -5t-9.5 -8l-106 -563q-1 -5 5.5 -7t34.5 -5l43 -4l1 -14h-237zM253 837h26l79 -177h-8l-91 122h-3l-138 -122h-10z" />
    <glyph glyph-name="Idieresis" unicode="&#xcf;" horiz-adv-x="314" 
d="M1 14l52 5q20 2 29 5t10 8l106 563q1 5 -5.5 7t-34.5 5l-43 4l-1 14h237l-4 -14l-52 -5q-20 -2 -28.5 -5t-9.5 -8l-106 -563q-1 -5 5.5 -7t34.5 -5l43 -4l1 -14h-237zM314 685q-20 0 -30 13.5t-10 27.5t10 29t30 15t29.5 -15t9.5 -29t-9.5 -27.5t-29.5 -13.5zM156 685
q-20 0 -29.5 13.5t-9.5 27.5t9.5 29t29.5 15t30 -15t10 -29t-10 -27.5t-30 -13.5z" />
    <glyph glyph-name="Eth" unicode="&#xd0;" horiz-adv-x="655" 
d="M51 307l5 19h81l26 134q11 59 25 135q1 5 -5.5 7t-34.5 5l-40 4l-1 14h234q65 0 117 -20.5t89 -56.5t56.5 -86.5t19.5 -110.5q0 -78 -27.5 -142.5t-79.5 -111t-127 -72t-169 -25.5h-229l3 14l50 5q37 4 38 13l52 275h-83zM346 326v-19h-153l-52 -278l103 -12
q75 1 133.5 28t99 74t61.5 110.5t21 137.5q0 112 -56.5 177t-175.5 65h-76l-54 -283h149z" />
    <glyph glyph-name="Ntilde" unicode="&#xd1;" horiz-adv-x="670" 
d="M218 577h-2l-100 -540q-2 -8 10 -13t45 -7l38 -3l2 -14h-215l3 14l41 3q25 2 39.5 6.5t16.5 15.5l105 544q-6 9 -20.5 13.5t-44.5 9.5l-31 5l-2 14h155l269 -533h2l92 496q1 8 -10.5 13t-44.5 7l-38 3l-2 14h215l-4 -14l-40 -3q-25 -2 -40 -6.5t-17 -15.5l-113 -592h-15z
M483 677q-17 0 -35.5 9.5t-36.5 21.5t-35 21.5t-31 9.5q-17 0 -32 -10.5t-27 -44.5h-12q14 47 34 70.5t50 23.5q17 0 35.5 -9.5t36.5 -21.5t35 -21.5t31 -9.5q17 0 32.5 11t27.5 44h12q-15 -48 -34.5 -71t-50.5 -23z" />
    <glyph glyph-name="Ograve" unicode="&#xd2;" horiz-adv-x="692" 
d="M337 -14q-65 0 -117.5 23.5t-89.5 63.5t-57 93.5t-20 114.5q0 67 25 131t70 114.5t107 81t136 30.5q64 0 116.5 -23.5t89.5 -64t57.5 -94t20.5 -114.5q0 -75 -27.5 -140t-74 -113t-108 -75.5t-128.5 -27.5zM340 2q61 0 111 29t85 78.5t54 114.5t19 136q0 55 -14.5 103
t-42.5 83t-69.5 55.5t-95.5 20.5q-64 0 -114 -31.5t-84.5 -82.5t-52.5 -116t-18 -132q0 -55 14 -102t42 -81.5t69.5 -54.5t96.5 -20zM269 851h64l84 -184h-10z" />
    <glyph glyph-name="Oacute" unicode="&#xd3;" horiz-adv-x="692" 
d="M337 -14q-65 0 -117.5 23.5t-89.5 63.5t-57 93.5t-20 114.5q0 67 25 131t70 114.5t107 81t136 30.5q64 0 116.5 -23.5t89.5 -64t57.5 -94t20.5 -114.5q0 -75 -27.5 -140t-74 -113t-108 -75.5t-128.5 -27.5zM340 2q61 0 111 29t85 78.5t54 114.5t19 136q0 55 -14.5 103
t-42.5 83t-69.5 55.5t-95.5 20.5q-64 0 -114 -31.5t-84.5 -82.5t-52.5 -116t-18 -132q0 -55 14 -102t42 -81.5t69.5 -54.5t96.5 -20zM533 851h69l-208 -184h-9z" />
    <glyph glyph-name="Ocircumflex" unicode="&#xd4;" horiz-adv-x="692" 
d="M337 -14q-65 0 -117.5 23.5t-89.5 63.5t-57 93.5t-20 114.5q0 67 25 131t70 114.5t107 81t136 30.5q64 0 116.5 -23.5t89.5 -64t57.5 -94t20.5 -114.5q0 -75 -27.5 -140t-74 -113t-108 -75.5t-128.5 -27.5zM340 2q61 0 111 29t85 78.5t54 114.5t19 136q0 55 -14.5 103
t-42.5 83t-69.5 55.5t-95.5 20.5q-64 0 -114 -31.5t-84.5 -82.5t-52.5 -116t-18 -132q0 -55 14 -102t42 -81.5t69.5 -54.5t96.5 -20zM420 837h26l79 -177h-8l-91 122h-3l-138 -122h-10z" />
    <glyph glyph-name="Otilde" unicode="&#xd5;" horiz-adv-x="692" 
d="M337 -14q-65 0 -117.5 23.5t-89.5 63.5t-57 93.5t-20 114.5q0 67 25 131t70 114.5t107 81t136 30.5q64 0 116.5 -23.5t89.5 -64t57.5 -94t20.5 -114.5q0 -75 -27.5 -140t-74 -113t-108 -75.5t-128.5 -27.5zM340 2q61 0 111 29t85 78.5t54 114.5t19 136q0 55 -14.5 103
t-42.5 83t-69.5 55.5t-95.5 20.5q-64 0 -114 -31.5t-84.5 -82.5t-52.5 -116t-18 -132q0 -55 14 -102t42 -81.5t69.5 -54.5t96.5 -20zM483 677q-17 0 -35.5 9.5t-36.5 21.5t-35 21.5t-31 9.5q-17 0 -32 -10.5t-27 -44.5h-12q14 47 34 70.5t50 23.5q17 0 35.5 -9.5t36.5 -21.5
t35 -21.5t31 -9.5q17 0 32.5 11t27.5 44h12q-15 -48 -34.5 -71t-50.5 -23z" />
    <glyph glyph-name="Odieresis" unicode="&#xd6;" horiz-adv-x="692" 
d="M337 -14q-65 0 -117.5 23.5t-89.5 63.5t-57 93.5t-20 114.5q0 67 25 131t70 114.5t107 81t136 30.5q64 0 116.5 -23.5t89.5 -64t57.5 -94t20.5 -114.5q0 -75 -27.5 -140t-74 -113t-108 -75.5t-128.5 -27.5zM340 2q61 0 111 29t85 78.5t54 114.5t19 136q0 55 -14.5 103
t-42.5 83t-69.5 55.5t-95.5 20.5q-64 0 -114 -31.5t-84.5 -82.5t-52.5 -116t-18 -132q0 -55 14 -102t42 -81.5t69.5 -54.5t96.5 -20zM499 685q-20 0 -30 13.5t-10 27.5t10 29t30 15t29.5 -15t9.5 -29t-9.5 -27.5t-29.5 -13.5zM341 685q-20 0 -29.5 13.5t-9.5 27.5t9.5 29
t29.5 15t30 -15t10 -29t-10 -27.5t-30 -13.5z" />
    <glyph glyph-name="multiply" unicode="&#xd7;" horiz-adv-x="448" 
d="M212 236l-175 175l16 16l175 -175l175 175l16 -16l-175 -175l175 -175l-16 -16l-175 175l-175 -175l-16 16z" />
    <glyph glyph-name="Oslash" unicode="&#xd8;" horiz-adv-x="692" 
d="M575 573q48 -42 74 -101.5t26 -128.5q0 -75 -27.5 -140.5t-74 -114t-108 -76t-128.5 -27.5q-51 0 -93 14t-77 40l-85 -112h-20l93 121q-49 42 -75.5 102.5t-26.5 130.5q0 67 25 131.5t70 115t107 81t136 30.5q51 0 94 -15t78 -41l81 106h20zM543 557q-28 31 -66.5 48.5
t-89.5 17.5q-64 0 -114 -31.5t-84.5 -83t-52.5 -116.5t-18 -131q0 -56 14 -103.5t43 -82.5zM186 63q27 -29 65.5 -45.5t88.5 -16.5q61 0 111 29.5t85 79t54 115t19 136.5q0 54 -14 101.5t-41 82.5z" />
    <glyph glyph-name="Ugrave" unicode="&#xd9;" horiz-adv-x="665" 
d="M326 -16q-50 0 -91.5 11t-71 32.5t-45.5 53.5t-16 75q0 37 9 79l69 360q1 5 -5.5 7.5t-35.5 4.5l-49 4l-2 14h251l-3 -14l-59 -5q-20 -2 -28.5 -5t-9.5 -8l-69 -366q-3 -17 -5 -33.5t-2 -32.5q0 -72 47 -109t138 -37q78 0 128 47.5t69 147.5l71 378q2 8 -11 13t-46 7
l-38 3l-2 14h216l-4 -14l-40 -3q-25 -2 -39 -6.5t-16 -15.5l-73 -380q-21 -114 -81.5 -168t-155.5 -54zM306 851h64l84 -184h-10z" />
    <glyph glyph-name="Uacute" unicode="&#xda;" horiz-adv-x="665" 
d="M326 -16q-50 0 -91.5 11t-71 32.5t-45.5 53.5t-16 75q0 37 9 79l69 360q1 5 -5.5 7.5t-35.5 4.5l-49 4l-2 14h251l-3 -14l-59 -5q-20 -2 -28.5 -5t-9.5 -8l-69 -366q-3 -17 -5 -33.5t-2 -32.5q0 -72 47 -109t138 -37q78 0 128 47.5t69 147.5l71 378q2 8 -11 13t-46 7
l-38 3l-2 14h216l-4 -14l-40 -3q-25 -2 -39 -6.5t-16 -15.5l-73 -380q-21 -114 -81.5 -168t-155.5 -54zM538 851h69l-208 -184h-9z" />
    <glyph glyph-name="Ucircumflex" unicode="&#xdb;" horiz-adv-x="665" 
d="M326 -16q-50 0 -91.5 11t-71 32.5t-45.5 53.5t-16 75q0 37 9 79l69 360q1 5 -5.5 7.5t-35.5 4.5l-49 4l-2 14h251l-3 -14l-59 -5q-20 -2 -28.5 -5t-9.5 -8l-69 -366q-3 -17 -5 -33.5t-2 -32.5q0 -72 47 -109t138 -37q78 0 128 47.5t69 147.5l71 378q2 8 -11 13t-46 7
l-38 3l-2 14h216l-4 -14l-40 -3q-25 -2 -39 -6.5t-16 -15.5l-73 -380q-21 -114 -81.5 -168t-155.5 -54zM441 837h26l79 -177h-8l-91 122h-3l-138 -122h-10z" />
    <glyph glyph-name="Udieresis" unicode="&#xdc;" horiz-adv-x="665" 
d="M326 -16q-50 0 -91.5 11t-71 32.5t-45.5 53.5t-16 75q0 37 9 79l69 360q1 5 -5.5 7.5t-35.5 4.5l-49 4l-2 14h251l-3 -14l-59 -5q-20 -2 -28.5 -5t-9.5 -8l-69 -366q-3 -17 -5 -33.5t-2 -32.5q0 -72 47 -109t138 -37q78 0 128 47.5t69 147.5l71 378q2 8 -11 13t-46 7
l-38 3l-2 14h216l-4 -14l-40 -3q-25 -2 -39 -6.5t-16 -15.5l-73 -380q-21 -114 -81.5 -168t-155.5 -54zM506 685q-20 0 -30 13.5t-10 27.5t10 29t30 15t29.5 -15t9.5 -29t-9.5 -27.5t-29.5 -13.5zM348 685q-20 0 -29.5 13.5t-9.5 27.5t9.5 29t29.5 15t30 -15t10 -29
t-10 -27.5t-30 -13.5z" />
    <glyph glyph-name="Yacute" unicode="&#xdd;" horiz-adv-x="593" 
d="M132 14l63 5q20 2 28.5 5t9.5 8l46 245l-113 278q-5 13 -9 22.5t-9.5 16t-14.5 10t-23 4.5l-35 3l-2 14h232l-4 -14l-48 -2q-25 -1 -30 -9.5t4 -34.5l104 -263h2l163 222q20 28 29.5 44t8 24.5t-13 11t-33.5 4.5l-39 3l-1 14h219l-4 -14l-32 -2q-17 -1 -28.5 -3.5
t-22.5 -11.5t-25.5 -25.5t-36.5 -46.5l-177 -239l-48 -253q-1 -5 5.5 -7.5t35.5 -4.5l52 -4l1 -14h-257zM509 851h69l-208 -184h-9z" />
    <glyph glyph-name="Thorn" unicode="&#xde;" horiz-adv-x="522" 
d="M-15 14l59 5q20 2 28.5 5t9.5 8l106 563q1 5 -5.5 7.5t-34.5 4.5l-50 4l-1 14h251l-4 -14l-58 -5q-20 -2 -28.5 -5t-9.5 -8l-20 -102h47h31q48 0 87.5 -11.5t67 -32.5t42.5 -49.5t15 -62.5q0 -39 -16.5 -72t-46.5 -57t-72.5 -37.5t-93.5 -13.5q-38 0 -69 5t-52 10
l-27 -140q-1 -5 5.5 -8t35.5 -4l61 -4l2 -14h-263zM283 171q78 0 124 46t46 128q0 60 -38.5 94.5t-119.5 34.5h-12.5t-22.5 -0.5t-22.5 -0.5h-13.5l-52 -282q22 -8 49.5 -14t61.5 -6z" />
    <glyph glyph-name="germandbls" unicode="&#xdf;" horiz-adv-x="454" 
d="M294 410q25 -17 50 -44.5t44.5 -61t30.5 -70t8 -71.5q-2 -36 -15 -68t-34.5 -55.5t-50 -37t-60.5 -12.5q-23 1 -43 7.5t-35 17.5t-23 25t-7 31q0 20 12 33.5t31 12.5q16 0 23.5 -11t7.5 -23.5t-8 -23.5t-24 -12q8 -17 24.5 -29.5t44.5 -13.5q23 0 41.5 10.5t32 29.5
t21 45t9.5 56q4 63 -30.5 133t-109.5 128l2 7q36 1 65 12t50 29.5t32.5 43.5t13.5 54q2 40 -19 71.5t-61 32.5q-27 1 -47 -9t-36 -36t-28.5 -70t-25.5 -111l-67 -328q-24 -111 -49 -174t-55 -93q-19 -19 -39 -27t-42 -8q-35 0 -51.5 15t-16.5 35q0 18 11 28.5t25 10.5
q10 0 18 -5t12 -14t2 -20.5t-11 -24.5q4 -2 10 -1t13 3t12.5 4t8.5 2q17 3 30 15t25.5 40.5t25 79.5t28.5 132l54 299l-78 1l7 27l80 5q13 58 28.5 102.5t37 74.5t50 45.5t67.5 15.5q30 0 55 -9t42.5 -25.5t26.5 -39t8 -48.5q-4 -59 -47 -93t-107 -45z" />
    <glyph glyph-name="agrave" unicode="&#xe0;" horiz-adv-x="426" 
d="M276 -14q-15 0 -27.5 18.5t-12.5 37.5q0 16 11 52t36 105h-5q-24 -39 -47.5 -77t-47 -68t-46 -48.5t-43.5 -18.5q-36 0 -58 30t-22 75q0 39 13.5 81.5t35 83.5t48 77t51.5 61q20 20 43 32.5t45 12.5q30 0 50 -24.5t23 -65.5h3l27 94l47 -2l-67 -212l-58 -202l42 -6
l75 104l9 -8q-32 -61 -65 -96.5t-60 -35.5zM116 28q17 0 37.5 18t43 49t47 72.5t49.5 87.5q7 14 13.5 36t6.5 32q-3 12 -10.5 27t-19 27.5t-26.5 21.5t-33 9q-27 0 -54 -27q-19 -20 -37.5 -52.5t-33.5 -70.5t-24 -77t-9 -70q0 -42 15 -62.5t35 -20.5zM130 679h64l84 -184
h-10z" />
    <glyph glyph-name="aacute" unicode="&#xe1;" horiz-adv-x="426" 
d="M276 -14q-15 0 -27.5 18.5t-12.5 37.5q0 16 11 52t36 105h-5q-24 -39 -47.5 -77t-47 -68t-46 -48.5t-43.5 -18.5q-36 0 -58 30t-22 75q0 39 13.5 81.5t35 83.5t48 77t51.5 61q20 20 43 32.5t45 12.5q30 0 50 -24.5t23 -65.5h3l27 94l47 -2l-67 -212l-58 -202l42 -6
l75 104l9 -8q-32 -61 -65 -96.5t-60 -35.5zM116 28q17 0 37.5 18t43 49t47 72.5t49.5 87.5q7 14 13.5 36t6.5 32q-3 12 -10.5 27t-19 27.5t-26.5 21.5t-33 9q-27 0 -54 -27q-19 -20 -37.5 -52.5t-33.5 -70.5t-24 -77t-9 -70q0 -42 15 -62.5t35 -20.5zM373 679h69l-208 -184
h-9z" />
    <glyph glyph-name="acircumflex" unicode="&#xe2;" horiz-adv-x="426" 
d="M276 -14q-15 0 -27.5 18.5t-12.5 37.5q0 16 11 52t36 105h-5q-24 -39 -47.5 -77t-47 -68t-46 -48.5t-43.5 -18.5q-36 0 -58 30t-22 75q0 39 13.5 81.5t35 83.5t48 77t51.5 61q20 20 43 32.5t45 12.5q30 0 50 -24.5t23 -65.5h3l27 94l47 -2l-67 -212l-58 -202l42 -6
l75 104l9 -8q-32 -61 -65 -96.5t-60 -35.5zM116 28q17 0 37.5 18t43 49t47 72.5t49.5 87.5q7 14 13.5 36t6.5 32q-3 12 -10.5 27t-19 27.5t-26.5 21.5t-33 9q-27 0 -54 -27q-19 -20 -37.5 -52.5t-33.5 -70.5t-24 -77t-9 -70q0 -42 15 -62.5t35 -20.5zM277 665h26l79 -177h-8
l-91 122h-3l-138 -122h-10z" />
    <glyph glyph-name="atilde" unicode="&#xe3;" horiz-adv-x="426" 
d="M276 -14q-15 0 -27.5 18.5t-12.5 37.5q0 16 11 52t36 105h-5q-24 -39 -47.5 -77t-47 -68t-46 -48.5t-43.5 -18.5q-36 0 -58 30t-22 75q0 39 13.5 81.5t35 83.5t48 77t51.5 61q20 20 43 32.5t45 12.5q30 0 50 -24.5t23 -65.5h3l27 94l47 -2l-67 -212l-58 -202l42 -6
l75 104l9 -8q-32 -61 -65 -96.5t-60 -35.5zM116 28q17 0 37.5 18t43 49t47 72.5t49.5 87.5q7 14 13.5 36t6.5 32q-3 12 -10.5 27t-19 27.5t-26.5 21.5t-33 9q-27 0 -54 -27q-19 -20 -37.5 -52.5t-33.5 -70.5t-24 -77t-9 -70q0 -42 15 -62.5t35 -20.5zM353 505
q-17 0 -35.5 9.5t-36.5 21.5t-35 21.5t-31 9.5q-17 0 -32 -10.5t-27 -44.5h-12q14 47 34 70.5t50 23.5q17 0 35.5 -9.5t36.5 -21.5t35 -21.5t31 -9.5q17 0 32.5 11t27.5 44h12q-15 -48 -34.5 -71t-50.5 -23z" />
    <glyph glyph-name="adieresis" unicode="&#xe4;" horiz-adv-x="426" 
d="M276 -14q-15 0 -27.5 18.5t-12.5 37.5q0 16 11 52t36 105h-5q-24 -39 -47.5 -77t-47 -68t-46 -48.5t-43.5 -18.5q-36 0 -58 30t-22 75q0 39 13.5 81.5t35 83.5t48 77t51.5 61q20 20 43 32.5t45 12.5q30 0 50 -24.5t23 -65.5h3l27 94l47 -2l-67 -212l-58 -202l42 -6
l75 104l9 -8q-32 -61 -65 -96.5t-60 -35.5zM116 28q17 0 37.5 18t43 49t47 72.5t49.5 87.5q7 14 13.5 36t6.5 32q-3 12 -10.5 27t-19 27.5t-26.5 21.5t-33 9q-27 0 -54 -27q-19 -20 -37.5 -52.5t-33.5 -70.5t-24 -77t-9 -70q0 -42 15 -62.5t35 -20.5zM348 513
q-20 0 -30 13.5t-10 27.5t10 29t30 15t29.5 -15t9.5 -29t-9.5 -27.5t-29.5 -13.5zM190 513q-20 0 -29.5 13.5t-9.5 27.5t9.5 29t29.5 15t30 -15t10 -29t-10 -27.5t-30 -13.5z" />
    <glyph glyph-name="aring" unicode="&#xe5;" horiz-adv-x="426" 
d="M278 502q-42 0 -65.5 26.5t-23.5 63.5t23.5 63.5t65.5 26.5t65.5 -26.5t23.5 -63.5t-23.5 -63.5t-65.5 -26.5zM276 -14q-15 0 -27.5 18.5t-12.5 37.5q0 16 11 52t36 105h-5q-24 -39 -47.5 -77t-47 -68t-46 -48.5t-43.5 -18.5q-36 0 -58 30t-22 75q0 39 13.5 81.5t35 83.5
t48 77t51.5 61q20 20 43 32.5t45 12.5q30 0 50 -24.5t23 -65.5h3l27 94l47 -2l-67 -212l-58 -202l42 -6l75 104l9 -8q-32 -61 -65 -96.5t-60 -35.5zM278 516q35 0 54 22.5t19 53.5t-19 53.5t-54 22.5t-54 -22.5t-19 -53.5q-1 -31 18.5 -53.5t54.5 -22.5zM116 28
q17 0 37.5 18t43 49t47 72.5t49.5 87.5q7 14 13.5 36t6.5 32q-3 12 -10.5 27t-19 27.5t-26.5 21.5t-33 9q-27 0 -54 -27q-19 -20 -37.5 -52.5t-33.5 -70.5t-24 -77t-9 -70q0 -42 15 -62.5t35 -20.5z" />
    <glyph glyph-name="ae" unicode="&#xe6;" horiz-adv-x="574" 
d="M94 -13q-36 0 -58 29.5t-22 74.5q0 39 14 82t35.5 84t47.5 76.5t51 60.5q20 20 43 33t45 13q29 0 50 -27.5t23 -84.5q34 52 78.5 84t90.5 32q40 0 66.5 -20t26.5 -47q0 -23 -14 -41t-45 -35t-80 -35t-119 -40q-11 -42 -11 -80q0 -59 24 -90.5t61 -31.5q65 0 130 99l10 -8
q-16 -25 -34.5 -48t-39 -40.5t-42.5 -28t-45 -10.5q-27 0 -48.5 11t-36.5 30.5t-23 45.5t-8 55q0 14 1 28t3 28q-54 -94 -95.5 -146.5t-78.5 -52.5zM333 242q60 19 99 34t61.5 30t31.5 31.5t9 38.5q0 21 -16.5 37t-43.5 16q-13 0 -29.5 -9.5t-32.5 -24.5
q-23 -23 -45.5 -64.5t-35.5 -87.5zM116 28q17 0 37 18t42.5 49t45.5 72.5t46 87.5q7 14 13.5 36t6.5 32q-2 12 -8.5 27t-17 27.5t-25 21.5t-32.5 9q-14 0 -27 -7.5t-27 -20.5q-19 -20 -37.5 -52.5t-33.5 -70t-24 -76.5t-9 -70q0 -42 15 -62.5t35 -20.5z" />
    <glyph glyph-name="ccedilla" unicode="&#xe7;" horiz-adv-x="330" 
d="M121 -12q-48 6 -75 46.5t-27 95.5q0 58 21 114.5t54.5 101t75 71.5t82.5 27q37 0 65 -18t28 -49q0 -19 -10.5 -30.5t-26.5 -11.5q-12 0 -22.5 8.5t-10.5 23.5q0 13 8 21t19 13q-8 10 -25 19t-37 9q-21 0 -39.5 -10.5t-33.5 -25.5q-18 -18 -35.5 -46.5t-31 -61.5
t-21.5 -69t-8 -70q0 -59 24.5 -91t60.5 -32q65 0 130 100l10 -8q-16 -25 -34.5 -48t-38.5 -40.5t-42 -28.5t-45 -11l-64 -58q54 6 85.5 -12.5t31.5 -51.5q0 -26 -15.5 -46t-42 -33.5t-63 -20.5t-78.5 -7l-2 9q78 4 120.5 26t42.5 59q0 21 -18.5 34t-53.5 13q-13 0 -29.5 -3
l-27.5 -5l2 8z" />
    <glyph glyph-name="egrave" unicode="&#xe8;" horiz-adv-x="328" 
d="M135 -13q-27 0 -48.5 11.5t-36.5 31t-23 45.5t-8 55q0 59 20 115.5t52.5 100.5t73 71t81.5 27t67 -20.5t26 -47.5q0 -24 -13.5 -42.5t-44.5 -36t-80 -35.5t-119 -40q-11 -41 -11 -76q0 -59 24.5 -91t60.5 -32q65 0 130 100l10 -8q-16 -25 -34.5 -48t-39 -41t-42.5 -28.5
t-45 -10.5zM88 238q59 17 97.5 32t61 30.5t31.5 34t9 41.5q0 22 -14 37.5t-38 15.5q-17 0 -34.5 -10.5t-34.5 -26.5q-23 -22 -45 -63.5t-35 -89.5q0 -1 1 -1q1 -1 1 0zM121 679h64l84 -184h-10z" />
    <glyph glyph-name="eacute" unicode="&#xe9;" horiz-adv-x="328" 
d="M135 -13q-27 0 -48.5 11.5t-36.5 31t-23 45.5t-8 55q0 59 20 115.5t52.5 100.5t73 71t81.5 27t67 -20.5t26 -47.5q0 -24 -13.5 -42.5t-44.5 -36t-80 -35.5t-119 -40q-11 -41 -11 -76q0 -59 24.5 -91t60.5 -32q65 0 130 100l10 -8q-16 -25 -34.5 -48t-39 -41t-42.5 -28.5
t-45 -10.5zM88 238q59 17 97.5 32t61 30.5t31.5 34t9 41.5q0 22 -14 37.5t-38 15.5q-17 0 -34.5 -10.5t-34.5 -26.5q-23 -22 -45 -63.5t-35 -89.5q0 -1 1 -1q1 -1 1 0zM349 679h69l-208 -184h-9z" />
    <glyph glyph-name="ecircumflex" unicode="&#xea;" horiz-adv-x="328" 
d="M135 -13q-27 0 -48.5 11.5t-36.5 31t-23 45.5t-8 55q0 59 20 115.5t52.5 100.5t73 71t81.5 27t67 -20.5t26 -47.5q0 -24 -13.5 -42.5t-44.5 -36t-80 -35.5t-119 -40q-11 -41 -11 -76q0 -59 24.5 -91t60.5 -32q65 0 130 100l10 -8q-16 -25 -34.5 -48t-39 -41t-42.5 -28.5
t-45 -10.5zM88 238q59 17 97.5 32t61 30.5t31.5 34t9 41.5q0 22 -14 37.5t-38 15.5q-17 0 -34.5 -10.5t-34.5 -26.5q-23 -22 -45 -63.5t-35 -89.5q0 -1 1 -1q1 -1 1 0zM253 665h26l79 -177h-8l-91 122h-3l-138 -122h-10z" />
    <glyph glyph-name="edieresis" unicode="&#xeb;" horiz-adv-x="328" 
d="M135 -13q-27 0 -48.5 11.5t-36.5 31t-23 45.5t-8 55q0 59 20 115.5t52.5 100.5t73 71t81.5 27t67 -20.5t26 -47.5q0 -24 -13.5 -42.5t-44.5 -36t-80 -35.5t-119 -40q-11 -41 -11 -76q0 -59 24.5 -91t60.5 -32q65 0 130 100l10 -8q-16 -25 -34.5 -48t-39 -41t-42.5 -28.5
t-45 -10.5zM88 238q59 17 97.5 32t61 30.5t31.5 34t9 41.5q0 22 -14 37.5t-38 15.5q-17 0 -34.5 -10.5t-34.5 -26.5q-23 -22 -45 -63.5t-35 -89.5q0 -1 1 -1q1 -1 1 0zM317 513q-20 0 -30 13.5t-10 27.5t10 29t30 15t29.5 -15t9.5 -29t-9.5 -27.5t-29.5 -13.5zM159 513
q-20 0 -29.5 13.5t-9.5 27.5t9.5 29t29.5 15t30 -15t10 -29t-10 -27.5t-30 -13.5z" />
    <glyph glyph-name="igrave" unicode="&#xec;" horiz-adv-x="234" 
d="M87 -13q-8 0 -17.5 4t-18.5 9.5t-15 12t-6 11.5q0 1 5.5 18t15 44t21.5 61.5t25 69.5q29 83 67 187l-44 5l-75 -104l-9 8q32 61 65 96t60 35q15 0 28.5 -18t12.5 -38q0 -4 -5.5 -21.5t-14.5 -43.5t-20.5 -58t-23.5 -65q-28 -77 -64 -172l44 -6l77 104l9 -8
q-32 -61 -64.5 -96t-52.5 -35zM71 679h64l84 -184h-10z" />
    <glyph glyph-name="iacute" unicode="&#xed;" horiz-adv-x="234" 
d="M87 -13q-8 0 -17.5 4t-18.5 9.5t-15 12t-6 11.5q0 1 5.5 18t15 44t21.5 61.5t25 69.5q29 83 67 187l-44 5l-75 -104l-9 8q32 61 65 96t60 35q15 0 28.5 -18t12.5 -38q0 -4 -5.5 -21.5t-14.5 -43.5t-20.5 -58t-23.5 -65q-28 -77 -64 -172l44 -6l77 104l9 -8
q-32 -61 -64.5 -96t-52.5 -35zM312 679h69l-208 -184h-9z" />
    <glyph glyph-name="icircumflex" unicode="&#xee;" horiz-adv-x="234" 
d="M194 665h27l72 -175h-9l-84 121h-3l-132 -121h-9zM87 -13q-8 0 -17.5 4t-18.5 9.5t-15 12t-6 11.5q0 1 5.5 18t15 44t21.5 61.5t25 69.5q29 83 67 187l-44 5l-75 -104l-9 8q32 61 65 96t60 35q15 0 28.5 -18t12.5 -38q0 -4 -5.5 -21.5t-14.5 -43.5t-20.5 -58t-23.5 -65
q-28 -77 -64 -172l44 -6l77 104l9 -8q-32 -61 -64.5 -96t-52.5 -35z" />
    <glyph glyph-name="idieresis" unicode="&#xef;" horiz-adv-x="234" 
d="M87 -13q-8 0 -17.5 4t-18.5 9.5t-15 12t-6 11.5q0 1 5.5 18t15 44t21.5 61.5t25 69.5q29 83 67 187l-44 5l-75 -104l-9 8q32 61 65 96t60 35q15 0 28.5 -18t12.5 -38q0 -4 -5.5 -21.5t-14.5 -43.5t-20.5 -58t-23.5 -65q-28 -77 -64 -172l44 -6l77 104l9 -8
q-32 -61 -64.5 -96t-52.5 -35zM274 513q-20 0 -30 13.5t-10 27.5t10 29t30 15t29.5 -15t9.5 -29t-9.5 -27.5t-29.5 -13.5zM116 513q-20 0 -29.5 13.5t-9.5 27.5t9.5 29t29.5 15t30 -15t10 -29t-10 -27.5t-30 -13.5z" />
    <glyph glyph-name="eth" unicode="&#xf0;" horiz-adv-x="377" 
d="M141 -13q-33 0 -55 15t-35.5 38.5t-19.5 53.5t-6 60q0 48 17 99t45.5 93.5t65.5 69.5t78 27q23 0 39.5 -9.5t27.5 -26.5q-11 42 -32 80.5t-52 70.5l-128 -41l4 20l111 36q-45 40 -100 70l10 9q36 -14 66 -31.5t55 -38.5l130 43l-1 -20l-115 -36q31 -29 52 -61.5t34.5 -67
t19 -70.5t5.5 -71q0 -57 -17.5 -112.5t-47 -100t-69 -72t-82.5 -27.5zM135 3q24 0 46.5 14t42 38t35.5 55.5t27 66.5q9 29 14.5 65.5t5.5 64.5q0 55 -17 87.5t-52 32.5q-24 0 -46 -17t-41 -44.5t-34.5 -62t-26.5 -68.5q-9 -30 -14 -65t-5 -54q0 -48 15.5 -80.5t49.5 -32.5z
" />
    <glyph glyph-name="ntilde" unicode="&#xf1;" horiz-adv-x="458" 
d="M316 -13q-8 0 -18 4t-19 9.5t-15 12t-6 11.5q0 6 6.5 25.5t16.5 46.5t22.5 59.5t23.5 64.5q8 23 16.5 47.5t16 45.5t12 37t4.5 22q0 16 -13.5 27t-30.5 11q-11 0 -34.5 -25t-54 -68.5t-65 -102.5t-67.5 -126l-29 -91l-51 5l49 159l67 243l-41 5l-74 -104l-9 8
q32 62 65 97t60 35q7 0 14 -5t13 -13t9.5 -18t3.5 -20q0 -9 -5 -30.5t-14.5 -53t-22.5 -71t-28 -84.5l7 -2q21 42 46 83t49 77t44.5 63t33.5 41q14 14 29 23t32 9q11 0 22.5 -5.5t21.5 -15t16 -22t6 -25.5q0 -9 -4.5 -25.5t-11.5 -37.5t-16 -46t-19 -50q-9 -24 -20.5 -55
t-22 -59t-18.5 -49.5t-9 -25.5l44 -6l76 105l9 -8q-32 -62 -64.5 -97t-52.5 -35zM350 505q-17 0 -35.5 9.5t-36.5 21.5t-35 21.5t-31 9.5q-17 0 -32 -10.5t-27 -44.5h-12q14 47 34 70.5t50 23.5q17 0 35.5 -9.5t36.5 -21.5t35 -21.5t31 -9.5q17 0 32.5 11t27.5 44h12
q-15 -48 -34.5 -71t-50.5 -23z" />
    <glyph glyph-name="ograve" unicode="&#xf2;" horiz-adv-x="377" 
d="M141 -13q-33 0 -55 15t-35.5 38.5t-19.5 53.5t-6 60q0 48 17 99.5t45.5 93.5t65.5 69.5t78 27.5q29 0 51.5 -13.5t38 -37.5t23.5 -56.5t8 -69.5q0 -49 -17 -99t-46 -90t-67.5 -65.5t-80.5 -25.5zM135 3q24 0 46.5 14t42 38t35.5 55.5t27 66.5q9 29 14.5 65.5t5.5 64.5
q0 55 -17 87.5t-52 32.5q-24 0 -46 -17t-41 -44.5t-34.5 -62t-26.5 -68.5q-9 -30 -14 -65t-5 -54q0 -48 15.5 -80.5t49.5 -32.5zM128 679h64l84 -184h-10z" />
    <glyph glyph-name="oacute" unicode="&#xf3;" horiz-adv-x="377" 
d="M141 -13q-33 0 -55 15t-35.5 38.5t-19.5 53.5t-6 60q0 48 17 99.5t45.5 93.5t65.5 69.5t78 27.5q29 0 51.5 -13.5t38 -37.5t23.5 -56.5t8 -69.5q0 -49 -17 -99t-46 -90t-67.5 -65.5t-80.5 -25.5zM135 3q24 0 46.5 14t42 38t35.5 55.5t27 66.5q9 29 14.5 65.5t5.5 64.5
q0 55 -17 87.5t-52 32.5q-24 0 -46 -17t-41 -44.5t-34.5 -62t-26.5 -68.5q-9 -30 -14 -65t-5 -54q0 -48 15.5 -80.5t49.5 -32.5zM371 679h69l-208 -184h-9z" />
    <glyph glyph-name="ocircumflex" unicode="&#xf4;" horiz-adv-x="377" 
d="M141 -13q-33 0 -55 15t-35.5 38.5t-19.5 53.5t-6 60q0 48 17 99.5t45.5 93.5t65.5 69.5t78 27.5q29 0 51.5 -13.5t38 -37.5t23.5 -56.5t8 -69.5q0 -49 -17 -99t-46 -90t-67.5 -65.5t-80.5 -25.5zM135 3q24 0 46.5 14t42 38t35.5 55.5t27 66.5q9 29 14.5 65.5t5.5 64.5
q0 55 -17 87.5t-52 32.5q-24 0 -46 -17t-41 -44.5t-34.5 -62t-26.5 -68.5q-9 -30 -14 -65t-5 -54q0 -48 15.5 -80.5t49.5 -32.5zM265 665h26l79 -177h-8l-91 122h-3l-138 -122h-10z" />
    <glyph glyph-name="otilde" unicode="&#xf5;" horiz-adv-x="377" 
d="M141 -13q-33 0 -55 15t-35.5 38.5t-19.5 53.5t-6 60q0 48 17 99.5t45.5 93.5t65.5 69.5t78 27.5q29 0 51.5 -13.5t38 -37.5t23.5 -56.5t8 -69.5q0 -49 -17 -99t-46 -90t-67.5 -65.5t-80.5 -25.5zM135 3q24 0 46.5 14t42 38t35.5 55.5t27 66.5q9 29 14.5 65.5t5.5 64.5
q0 55 -17 87.5t-52 32.5q-24 0 -46 -17t-41 -44.5t-34.5 -62t-26.5 -68.5q-9 -30 -14 -65t-5 -54q0 -48 15.5 -80.5t49.5 -32.5zM320 505q-17 0 -35.5 9.5t-36.5 21.5t-35 21.5t-31 9.5q-17 0 -32 -10.5t-27 -44.5h-12q14 47 34 70.5t50 23.5q17 0 35.5 -9.5t36.5 -21.5
t35 -21.5t31 -9.5q17 0 32.5 11t27.5 44h12q-15 -48 -34.5 -71t-50.5 -23z" />
    <glyph glyph-name="odieresis" unicode="&#xf6;" horiz-adv-x="377" 
d="M141 -13q-33 0 -55 15t-35.5 38.5t-19.5 53.5t-6 60q0 48 17 99.5t45.5 93.5t65.5 69.5t78 27.5q29 0 51.5 -13.5t38 -37.5t23.5 -56.5t8 -69.5q0 -49 -17 -99t-46 -90t-67.5 -65.5t-80.5 -25.5zM135 3q24 0 46.5 14t42 38t35.5 55.5t27 66.5q9 29 14.5 65.5t5.5 64.5
q0 55 -17 87.5t-52 32.5q-24 0 -46 -17t-41 -44.5t-34.5 -62t-26.5 -68.5q-9 -30 -14 -65t-5 -54q0 -48 15.5 -80.5t49.5 -32.5zM336 513q-20 0 -30 13.5t-10 27.5t10 29t30 15t29.5 -15t9.5 -29t-9.5 -27.5t-29.5 -13.5zM178 513q-20 0 -29.5 13.5t-9.5 27.5t9.5 29
t29.5 15t30 -15t10 -29t-10 -27.5t-30 -13.5z" />
    <glyph glyph-name="divide" unicode="&#xf7;" horiz-adv-x="448" 
d="M277 377q0 -20 -14 -35t-36 -15q-21 0 -35 15t-14 35q0 19 14 33.5t35 14.5q22 0 36 -14.5t14 -33.5zM28 225l3 22h394l3 -22h-400zM277 98q0 -20 -14 -35t-35 -15q-22 0 -36 15t-14 35q0 19 14 33t36 14q21 0 35 -14t14 -33z" />
    <glyph glyph-name="oslash" unicode="&#xf8;" horiz-adv-x="377" 
d="M328 380q24 -45 24 -113q0 -50 -17 -99.5t-46 -90t-67.5 -65.5t-80.5 -25q-29 0 -49 11t-34 30q-7 -11 -16 -22q-8 -10 -17.5 -22.5t-19.5 -25.5l-54 -70h-20q33 43 59 77q11 14 21.5 28t18.5 25q10 12 19 24q-13 24 -18.5 53.5t-5.5 58.5q0 48 17 99t45.5 93.5
t65.5 69.5t78 27q29 0 50.5 -12.5t37.5 -35.5l125 164h20zM299 369q-8 27 -23.5 42.5t-38.5 15.5q-24 0 -46 -17t-41 -44.5t-34.5 -62t-26.5 -68.5q-9 -30 -14 -65t-5 -54q0 -23 3 -42zM78 54q8 -23 21.5 -37t35.5 -14q24 0 46.5 14t42 37.5t35.5 55t27 66.5q9 30 14.5 66.5
t5.5 64.5q0 23 -3 41z" />
    <glyph glyph-name="ugrave" unicode="&#xf9;" horiz-adv-x="458" 
d="M310 -14q-7 0 -14 5t-13 13.5t-9.5 18.5t-3.5 19t5 30.5t14 53.5t22 71.5t28 84.5l-7 2q-21 -42 -46 -83.5t-49 -77t-44.5 -63t-32.5 -40.5q-14 -14 -29.5 -23.5t-35.5 -9.5q-11 0 -22 5.5t-20 15t-14.5 21.5t-5.5 26q0 9 4.5 25.5t11.5 37.5t16 45.5t18 50.5l70 190
l-44 5l-76 -105l-9 8q32 63 64.5 97.5t53.5 34.5q7 0 17 -4t19 -9.5t15.5 -11.5t6.5 -11q0 -6 -6.5 -26t-16.5 -47t-22.5 -59.5t-23.5 -64.5q-8 -23 -17 -47.5t-16 -45.5t-11.5 -36.5t-4.5 -21.5q0 -17 13.5 -28t30.5 -11q11 0 34.5 25t54 68.5t65 102t67.5 125.5l31 92
l50 -5l-50 -159l-68 -242l41 -6l75 104l9 -8q-32 -61 -65 -96.5t-60 -35.5zM149 679h64l84 -184h-10z" />
    <glyph glyph-name="uacute" unicode="&#xfa;" horiz-adv-x="458" 
d="M310 -14q-7 0 -14 5t-13 13.5t-9.5 18.5t-3.5 19t5 30.5t14 53.5t22 71.5t28 84.5l-7 2q-21 -42 -46 -83.5t-49 -77t-44.5 -63t-32.5 -40.5q-14 -14 -29.5 -23.5t-35.5 -9.5q-11 0 -22 5.5t-20 15t-14.5 21.5t-5.5 26q0 9 4.5 25.5t11.5 37.5t16 45.5t18 50.5l70 190
l-44 5l-76 -105l-9 8q32 63 64.5 97.5t53.5 34.5q7 0 17 -4t19 -9.5t15.5 -11.5t6.5 -11q0 -6 -6.5 -26t-16.5 -47t-22.5 -59.5t-23.5 -64.5q-8 -23 -17 -47.5t-16 -45.5t-11.5 -36.5t-4.5 -21.5q0 -17 13.5 -28t30.5 -11q11 0 34.5 25t54 68.5t65 102t67.5 125.5l31 92
l50 -5l-50 -159l-68 -242l41 -6l75 104l9 -8q-32 -61 -65 -96.5t-60 -35.5zM400 679h69l-208 -184h-9z" />
    <glyph glyph-name="ucircumflex" unicode="&#xfb;" horiz-adv-x="458" 
d="M310 -14q-7 0 -14 5t-13 13.5t-9.5 18.5t-3.5 19t5 30.5t14 53.5t22 71.5t28 84.5l-7 2q-21 -42 -46 -83.5t-49 -77t-44.5 -63t-32.5 -40.5q-14 -14 -29.5 -23.5t-35.5 -9.5q-11 0 -22 5.5t-20 15t-14.5 21.5t-5.5 26q0 9 4.5 25.5t11.5 37.5t16 45.5t18 50.5l70 190
l-44 5l-76 -105l-9 8q32 63 64.5 97.5t53.5 34.5q7 0 17 -4t19 -9.5t15.5 -11.5t6.5 -11q0 -6 -6.5 -26t-16.5 -47t-22.5 -59.5t-23.5 -64.5q-8 -23 -17 -47.5t-16 -45.5t-11.5 -36.5t-4.5 -21.5q0 -17 13.5 -28t30.5 -11q11 0 34.5 25t54 68.5t65 102t67.5 125.5l31 92
l50 -5l-50 -159l-68 -242l41 -6l75 104l9 -8q-32 -61 -65 -96.5t-60 -35.5zM310 665h26l79 -177h-8l-91 122h-3l-138 -122h-10z" />
    <glyph glyph-name="udieresis" unicode="&#xfc;" horiz-adv-x="458" 
d="M310 -14q-7 0 -14 5t-13 13.5t-9.5 18.5t-3.5 19t5 30.5t14 53.5t22 71.5t28 84.5l-7 2q-21 -42 -46 -83.5t-49 -77t-44.5 -63t-32.5 -40.5q-14 -14 -29.5 -23.5t-35.5 -9.5q-11 0 -22 5.5t-20 15t-14.5 21.5t-5.5 26q0 9 4.5 25.5t11.5 37.5t16 45.5t18 50.5l70 190
l-44 5l-76 -105l-9 8q32 63 64.5 97.5t53.5 34.5q7 0 17 -4t19 -9.5t15.5 -11.5t6.5 -11q0 -6 -6.5 -26t-16.5 -47t-22.5 -59.5t-23.5 -64.5q-8 -23 -17 -47.5t-16 -45.5t-11.5 -36.5t-4.5 -21.5q0 -17 13.5 -28t30.5 -11q11 0 34.5 25t54 68.5t65 102t67.5 125.5l31 92
l50 -5l-50 -159l-68 -242l41 -6l75 104l9 -8q-32 -61 -65 -96.5t-60 -35.5zM223 513q-20 0 -29.5 13.5t-9.5 27.5t9.5 29t29.5 15t30 -15t10 -29t-10 -27.5t-30 -13.5zM381 513q-20 0 -30 13.5t-10 27.5t10 29t30 15t29.5 -15t9.5 -29t-9.5 -27.5t-29.5 -13.5z" />
    <glyph glyph-name="yacute" unicode="&#xfd;" horiz-adv-x="406" 
d="M-20 -204q-36 0 -58 14t-22 40q1 17 11.5 28.5t27.5 11.5q22 0 31 -21t-6 -46l18 -4l25 -5q22 3 51.5 22.5t59 46.5t55.5 56.5t42 52.5q-7 76 -17.5 151t-23.5 133.5t-28 95t-30 36.5l-23 2l-67 -107l-10 8q29 61 54.5 98t54.5 37q26 0 46 -19t35 -64.5t25.5 -121.5
t19.5 -190q-1 2 0.5 2t2.5 -2q19 39 38.5 87t34.5 94.5t24 87.5t8 66q-12 -8 -23 -8t-20 5t-14.5 13t-5.5 17q0 15 10.5 26t27.5 11q22 0 34.5 -17.5t12.5 -45.5q0 -47 -15 -106t-41.5 -120t-62 -119t-75.5 -103q-24 -29 -49 -55t-51 -45.5t-53 -31t-54 -11.5zM361 679h69
l-208 -184h-9z" />
    <glyph glyph-name="thorn" unicode="&#xfe;" horiz-adv-x="410" 
d="M-125 -237l37 2q10 1 20.5 3t12.5 9l234 841q2 8 0 14t-7 6l-81 5l2 11l151 19l-30 -116q-18 -60 -37 -120t-35 -112l-28 -91t-18 -56q-2 -7 0.5 -7.5t5.5 4.5q121 265 202 268q20 0 35.5 -9t26.5 -25t17 -36.5t6 -44.5q0 -56 -17.5 -116.5t-49 -110.5t-74 -82.5
t-93.5 -32.5q-18 0 -31 6t-23 15.5t-17.5 21t-12.5 22.5h-2l-76 -275q-2 -5 6.5 -7.5t33.5 -3.5l49 -2l1 -14h-211zM159 0q15 0 34.5 10.5t33.5 24.5q24 24 44 57t34.5 70.5t22.5 76.5t8 75q0 40 -14 63.5t-40 24.5q-17 0 -38.5 -20t-44.5 -54t-47.5 -79.5t-47.5 -96.5
q-10 -24 -16 -45.5t-6 -31.5q3 -10 9.5 -23t16.5 -24.5t23 -19.5t28 -8z" />
    <glyph glyph-name="ydieresis" unicode="&#xff;" horiz-adv-x="406" 
d="M-20 -204q-36 0 -58 14t-22 40q1 17 11.5 28.5t27.5 11.5q22 0 31 -21t-6 -46l18 -4l25 -5q22 3 51.5 22.5t59 46.5t55.5 56.5t42 52.5q-7 76 -17.5 151t-23.5 133.5t-28 95t-30 36.5l-23 2l-67 -107l-10 8q29 61 54.5 98t54.5 37q26 0 46 -19t35 -64.5t25.5 -121.5
t19.5 -190q-1 2 0.5 2t2.5 -2q19 39 38.5 87t34.5 94.5t24 87.5t8 66q-12 -8 -23 -8t-20 5t-14.5 13t-5.5 17q0 15 10.5 26t27.5 11q22 0 34.5 -17.5t12.5 -45.5q0 -47 -15 -106t-41.5 -120t-62 -119t-75.5 -103q-24 -29 -49 -55t-51 -45.5t-53 -31t-54 -11.5zM325 513
q-20 0 -30 13.5t-10 27.5t10 29t30 15t29.5 -15t9.5 -29t-9.5 -27.5t-29.5 -13.5zM167 513q-20 0 -29.5 13.5t-9.5 27.5t9.5 29t29.5 15t30 -15t10 -29t-10 -27.5t-30 -13.5z" />
    <glyph glyph-name="OE" unicode="&#x152;" horiz-adv-x="891" 
d="M331 0q-65 0 -117.5 20.5t-89.5 56.5t-56.5 86.5t-19.5 110.5q0 78 28 142.5t80 111t126.5 72t168.5 25.5h421l5 -163h-12l-5 44q-9 30 -19 49.5t-26.5 31.5t-42.5 17t-67 5h-112l-52 -272h88q31 0 48.5 3t27.5 9.5t16 17.5t14 28l13 28l11 -1l-41 -191l-11 1l2 28
q1 20 0.5 31.5t-9 17.5t-27 8t-52.5 2l-82 2l-58 -302l125 -2q52 0 87.5 8.5t59.5 23.5t41 35.5t32 45.5l18 42l15 -1l-70 -171h-458zM420 16l110 581l-102 11q-75 -1 -134 -28t-99.5 -74t-61.5 -110.5t-21 -137.5q0 -112 57 -177t175 -65h76z" />
    <glyph glyph-name="oe" unicode="&#x153;" horiz-adv-x="596" 
d="M141 -13q-33 0 -55 15t-35.5 38.5t-19.5 53.5t-6 60q0 48 17 99.5t45.5 93.5t65.5 69.5t78 27.5q47 0 75.5 -33t38.5 -87q33 54 77.5 87t91.5 33q40 0 66.5 -20t26.5 -47q0 -23 -14 -41t-45 -35t-80 -35t-119 -40q-11 -42 -11 -80q0 -59 24.5 -91t60.5 -32q65 0 130 100
l10 -8q-16 -25 -34.5 -48t-39 -41t-42.5 -28.5t-45 -10.5q-44 0 -71.5 28t-36.5 71q-29 -45 -68.5 -72t-84.5 -27zM355 242q60 19 99 34t61.5 30t31.5 31.5t9 38.5q0 21 -16.5 37t-43.5 16q-13 0 -29.5 -9.5t-32.5 -24.5q-23 -23 -45.5 -64.5t-35.5 -87.5zM135 3
q24 0 46.5 14t42 38t35.5 55.5t27 66.5q9 29 14.5 65.5t5.5 64.5q0 55 -17 87.5t-52 32.5q-24 0 -46 -17t-41 -44.5t-34.5 -62t-26.5 -68.5q-9 -30 -14 -65t-5 -54q0 -48 15.5 -80.5t49.5 -32.5z" />
    <glyph glyph-name="Scaron" unicode="&#x160;" horiz-adv-x="466" 
d="M205 -15q-25 0 -51 4t-51 11.5t-47.5 16.5t-40.5 20l14 147l12 -1l10 -71q16 -53 58.5 -82t99.5 -29q36 0 66 9t52 26t34.5 43t12.5 61q0 27 -8 48t-25 40t-43 37.5t-61 40.5q-27 17 -51.5 35t-43 38.5t-29 45t-10.5 54.5q0 40 15 70t41.5 50.5t61.5 31t75 10.5
q36 0 67 -9t52 -21l50 9l-23 -163l-13 1l-27 130q-18 17 -48 27.5t-59 10.5q-65 0 -105 -32.5t-40 -88.5q0 -26 8.5 -46t25 -38t40.5 -35t56 -37q27 -17 53 -35.5t45.5 -39.5t31.5 -46.5t12 -57.5q0 -43 -16 -77t-44.5 -58t-68.5 -37t-88 -13zM210 850h9l91 -122h3l138 122
h10l-145 -177h-27z" />
    <glyph glyph-name="scaron" unicode="&#x161;" horiz-adv-x="301" 
d="M115 -13q-49 0 -83 21t-34 57q0 18 10 30t24 12t23.5 -10t9.5 -24q0 -11 -7.5 -20.5t-17.5 -13.5q16 -14 39.5 -25.5t52.5 -12.5q22 2 37.5 10.5t25.5 21.5t14 28t4 30q0 16 -7 30t-17.5 27.5t-23.5 26.5l-26 26q-32 31 -55.5 59.5t-24.5 65.5q0 25 11.5 47t31 37.5
t43 24.5t47.5 9q44 0 73 -19t30 -55q0 -20 -11 -30.5t-25 -10.5t-22.5 9.5t-8.5 24.5q0 24 23 34q-15 14 -33.5 23t-40.5 9q-39 -3 -58.5 -28t-18.5 -57q0 -28 18.5 -51t50.5 -52q13 -12 28.5 -27t28 -31.5t21.5 -35t9 -39.5q0 -25 -12 -47t-31.5 -38.5t-45 -26t-52.5 -9.5z
M116 665h9l91 -122h3l138 122h10l-145 -177h-27z" />
    <glyph glyph-name="Ydieresis" unicode="&#x178;" horiz-adv-x="593" 
d="M132 14l63 5q20 2 28.5 5t9.5 8l46 245l-113 278q-5 13 -9 22.5t-9.5 16t-14.5 10t-23 4.5l-35 3l-2 14h232l-4 -14l-48 -2q-25 -1 -30 -9.5t4 -34.5l104 -263h2l163 222q20 28 29.5 44t8 24.5t-13 11t-33.5 4.5l-39 3l-1 14h219l-4 -14l-32 -2q-17 -1 -28.5 -3.5
t-22.5 -11.5t-25.5 -25.5t-36.5 -46.5l-177 -239l-48 -253q-1 -5 5.5 -7.5t35.5 -4.5l52 -4l1 -14h-257zM467 685q-20 0 -30 13.5t-10 27.5t10 29t30 15t29.5 -15t9.5 -29t-9.5 -27.5t-29.5 -13.5zM309 685q-20 0 -29.5 13.5t-9.5 27.5t9.5 29t29.5 15t30 -15t10 -29
t-10 -27.5t-30 -13.5z" />
    <glyph glyph-name="Zcaron" unicode="&#x17d;" horiz-adv-x="535" 
d="M-8 11l506 595v2l-188 1q-41 0 -69 -7.5t-48 -22t-35 -36.5t-30 -52l-14 -43h-14l40 177h435l-2 -11l-504 -595l-1 -2l183 -1q52 0 87 9t59.5 26.5t41.5 42t32 56.5l18 47h16l-64 -197h-451zM263 837h9l91 -122h3l138 122h10l-145 -177h-27z" />
    <glyph glyph-name="zcaron" unicode="&#x17e;" horiz-adv-x="349" 
d="M212 -19q-26 3 -49 18t-43.5 32t-38 31.5t-32.5 18.5l-6 -1l-27 -92q-16 3 -27 12t-11 22q0 20 16 36.5t33 22.5l251 262q-22 2 -43.5 12t-41 23t-35.5 25.5t-27 18.5q-2 1 -8.5 -5t-14 -13.5t-12.5 -14.5t-3 -7q26 -9 26 -34q0 -14 -9.5 -23.5t-24.5 -9.5q-16 0 -24 9.5
t-8 23.5q0 15 10.5 30.5t26.5 29.5t36 24t39 13q27 -3 46.5 -16t33 -28.5t22.5 -29t17 -18.5l6 1l25 92q15 -4 26.5 -10.5t11.5 -20.5q0 -9 -4.5 -19t-12 -19.5t-16 -16.5t-16.5 -10l-250 -260q28 -2 55 -11t51.5 -21t46 -26.5t38.5 -27.5q1 -1 7.5 4.5t14 12.5t12.5 13.5
t4 6.5q-15 5 -23 16.5t-8 22.5q0 14 10 23t26 9q14 0 22.5 -10.5t8.5 -25.5t-9.5 -31t-25 -29t-34.5 -22.5t-38 -12.5zM136 665h9l91 -122h3l138 122h10l-145 -177h-27z" />
    <glyph glyph-name="florin" unicode="&#x192;" horiz-adv-x="475" 
d="M91 -54q-34 0 -51 14.5t-17 34.5q0 18 11 28.5t25 10.5q10 0 18.5 -5t12 -13.5t2 -20t-11.5 -24.5q4 -2 10.5 -1.5t12.5 1.5t11.5 2.5t8.5 1.5q16 4 29.5 15.5t26.5 41t26 80.5t29 134l22 119l-96 2l7 26l97 5q18 78 40.5 125.5t47.5 72.5q22 23 46.5 32t51.5 9
q29 0 50.5 -14.5t21.5 -36.5q0 -19 -11 -30t-25 -11q-11 0 -19 5t-12 13.5t-2 20t12 24.5l-18 2q-8 1 -16 1.5t-13 0.5q-19 -3 -33 -16t-25.5 -38.5t-22 -65t-21.5 -96.5h127l-5 -31h-127l-20 -89q-11 -48 -23 -93t-26.5 -83.5t-30 -68.5t-32.5 -46q-20 -21 -43 -30t-45 -9z
" />
    <glyph glyph-name="circumflex" unicode="&#x2c6;" 
d="M260 665h26l79 -177h-8l-91 122h-3l-138 -122h-10z" />
    <glyph glyph-name="tilde" unicode="&#x2dc;" 
d="M315 505q-17 0 -35.5 9.5t-36.5 21.5t-35 21.5t-31 9.5q-17 0 -32 -10.5t-27 -44.5h-12q14 47 34 70.5t50 23.5q17 0 35.5 -9.5t36.5 -21.5t35 -21.5t31 -9.5q17 0 32.5 11t27.5 44h12q-15 -48 -34.5 -71t-50.5 -23z" />
    <glyph glyph-name="endash" unicode="&#x2013;" horiz-adv-x="439" 
d="M19 251h414l-4 -26h-416z" />
    <glyph glyph-name="emdash" unicode="&#x2014;" horiz-adv-x="907" 
d="M19 251h882l-4 -26h-884z" />
    <glyph glyph-name="quoteleft" unicode="&#x2018;" horiz-adv-x="170" 
d="M140 430q-26 0 -43.5 19t-15.5 48q1 24 14 47t32.5 42.5t43.5 35t48 26.5l6 -8q-38 -20 -67 -48t-31 -67q-1 -13 4.5 -22.5t14.5 -15.5t20 -8.5t22 -1.5q2 -14 -10 -30.5t-38 -16.5z" />
    <glyph glyph-name="quoteright" unicode="&#x2019;" horiz-adv-x="169" 
d="M66 435q38 20 66.5 47.5t30.5 66.5q1 13 -4.5 23t-14.5 16t-20.5 8.5t-21.5 1.5q-2 14 10.5 30.5t37.5 16.5q27 0 44.5 -19t15.5 -48q-2 -25 -14.5 -48t-32.5 -42.5t-44 -34.5t-48 -25z" />
    <glyph glyph-name="quotesinglbase" unicode="&#x201a;" horiz-adv-x="169" 
d="M-37 -108q38 20 66.5 47.5t30.5 66.5q1 13 -4.5 23t-14.5 16t-20.5 8.5t-21.5 1.5q-2 14 10.5 30.5t37.5 16.5q27 0 44.5 -19t15.5 -48q-2 -25 -14.5 -48t-32.5 -42.5t-44 -34.5t-48 -25z" />
    <glyph glyph-name="quotedblleft" unicode="&#x201c;" horiz-adv-x="322" 
d="M292 430q-27 0 -44 19t-15 48q1 24 14 47t32.5 42.5t43.5 35t48 26.5l5 -8q-38 -20 -66.5 -48t-30.5 -67q-1 -13 4.5 -22.5t14.5 -15.5t20 -8.5t22 -1.5q2 -14 -10.5 -30.5t-37.5 -16.5zM140 430q-26 0 -43.5 19t-15.5 48q1 24 14 47t32.5 42.5t43.5 35t48 26.5l6 -8
q-38 -20 -67 -48t-31 -67q-1 -13 4.5 -22.5t14.5 -15.5t20 -8.5t22 -1.5q2 -14 -10 -30.5t-38 -16.5z" />
    <glyph glyph-name="quotedblright" unicode="&#x201d;" horiz-adv-x="321" 
d="M217 435q19 10 36.5 22t31 26t21.5 30t9 36q1 13 -4.5 23t-14.5 16t-20.5 8.5t-21.5 1.5q-2 14 10.5 30.5t37.5 16.5q26 0 43.5 -19t15.5 -48q-1 -25 -14 -48t-32.5 -42.5t-44 -34.5t-48.5 -25zM66 435q38 20 66.5 47.5t30.5 66.5q1 13 -4.5 23t-14.5 16t-20.5 8.5
t-21.5 1.5q-2 14 10.5 30.5t37.5 16.5q27 0 44.5 -19t15.5 -48q-2 -25 -14.5 -48t-32.5 -42.5t-44 -34.5t-48 -25z" />
    <glyph glyph-name="quotedblbase" unicode="&#x201e;" horiz-adv-x="321" 
d="M114 -108q19 10 36.5 22t31 26t21.5 30t9 36q1 13 -4.5 23t-14.5 16t-20.5 8.5t-21.5 1.5q-2 14 10.5 30.5t37.5 16.5q26 0 43.5 -19t15.5 -48q-1 -25 -14 -48t-32.5 -42.5t-44 -34.5t-48.5 -25zM-37 -108q38 20 66.5 47.5t30.5 66.5q1 13 -4.5 23t-14.5 16t-20.5 8.5
t-21.5 1.5q-2 14 10.5 30.5t37.5 16.5q27 0 44.5 -19t15.5 -48q-2 -25 -14.5 -48t-32.5 -42.5t-44 -34.5t-48 -25z" />
    <glyph glyph-name="dagger" unicode="&#x2020;" horiz-adv-x="444" 
d="M234 409h-195l-1 17h197l30 199h18l-30 -199h197l-3 -17h-195l-85 -565h-18z" />
    <glyph glyph-name="daggerdbl" unicode="&#x2021;" horiz-adv-x="444" 
d="M187 31h-197l3 18h196l55 370h-195v18h197l29 188h17l-28 -188h197l-3 -18h-196l-56 -370h196v-18h-197l-29 -187h-18z" />
    <glyph glyph-name="bullet" unicode="&#x2022;" horiz-adv-x="434" 
d="M219 39q-11 0 -30.5 6t-40.5 15t-39 18.5t-25 17.5q-8 8 -17.5 26t-18.5 39t-15 40.5t-6 30.5t6 30.5t15 40.5t18.5 39t17.5 26q7 7 25.5 17t39.5 18.5t40.5 14.5t30.5 6t30.5 -6t40.5 -14.5t38.5 -18.5t25.5 -17q7 -8 17 -26t18.5 -39t14.5 -40.5t6 -30.5t-6 -30.5
t-14.5 -40.5t-18 -39t-17.5 -26t-26 -18t-39 -18.5t-40.5 -14.5t-30.5 -6z" />
    <glyph glyph-name="ellipsis" unicode="&#x2026;" horiz-adv-x="545" 
d="M419 -14q-20 0 -33 14t-13 33q1 17 14 30.5t33 13.5t32.5 -13.5t12.5 -30.5q0 -19 -13 -33t-33 -14zM238 -14q-20 0 -33.5 14t-13.5 33q1 17 14.5 30.5t33.5 13.5t32 -13.5t12 -30.5q0 -19 -12.5 -33t-32.5 -14zM56 -14q-20 0 -33.5 14t-12.5 33q0 17 13.5 30.5
t33.5 13.5t32.5 -13.5t11.5 -30.5q0 -19 -12.5 -33t-32.5 -14z" />
    <glyph glyph-name="perthousand" unicode="&#x2030;" horiz-adv-x="924" 
d="M199 364q-30 0 -54.5 10t-42.5 28t-27.5 42.5t-9.5 52.5q0 29 10.5 55.5t29 46.5t44.5 31.5t58 11.5q30 0 55 -10.5t43 -28.5t27.5 -42.5t9.5 -52.5q0 -29 -10.5 -55.5t-29 -46t-45 -31t-58.5 -11.5zM611 640h24l-600 -654h-24zM756 -16q-30 0 -54.5 10t-42 28t-27 42
t-9.5 52q0 30 10 56.5t29 46.5t45 31.5t58 11.5q30 0 54.5 -10.5t42.5 -28.5t27.5 -42.5t9.5 -52.5q0 -29 -10.5 -55.5t-29 -46t-45 -31t-58.5 -11.5zM441 -16q-30 0 -54.5 10t-42 28t-27 42t-9.5 52q0 30 10 56.5t29 46.5t45 31.5t58 11.5q30 0 54.5 -10.5t42.5 -28.5
t27.5 -42.5t9.5 -52.5q0 -29 -10.5 -55.5t-29 -46t-45 -31t-58.5 -11.5zM200 380q27 0 49.5 10t38.5 27t25 39.5t9 48.5q0 25 -8.5 47t-23.5 38t-36.5 25.5t-47.5 9.5q-27 0 -49.5 -10.5t-38.5 -27.5t-24.5 -40.5t-8.5 -48.5q0 -51 31.5 -84.5t83.5 -33.5zM758 0
q27 0 49.5 10t38.5 27t25 40.5t9 49.5q0 25 -8.5 46.5t-23.5 37.5t-36.5 25t-47.5 9q-27 0 -49.5 -10.5t-38.5 -27.5t-24.5 -40.5t-8.5 -48.5q0 -51 31.5 -84.5t83.5 -33.5zM443 0q27 0 49.5 10t38.5 27t25 40.5t9 49.5q0 25 -8.5 46.5t-23.5 37.5t-36.5 25t-47.5 9
q-27 0 -49.5 -10.5t-38.5 -27.5t-24.5 -40.5t-8.5 -48.5q0 -51 31.5 -84.5t83.5 -33.5z" />
    <glyph glyph-name="guilsinglleft" unicode="&#x2039;" horiz-adv-x="243" 
d="M18 216l2 14l225 163l5 -8l-170 -167l108 -161l-7 -7z" />
    <glyph glyph-name="guilsinglright" unicode="&#x203a;" horiz-adv-x="243" 
d="M-6 58l168 166l-108 161l6 8l163 -167l-2 -13l-224 -164z" />
    <glyph glyph-name="Euro" unicode="&#x20ac;" horiz-adv-x="473" 
d="M254 -14q-44 0 -78 19t-57 51t-35.5 74t-13.5 89h-63l4 17h58q1 14 3.5 30t5.5 31q2 14 3.5 26.5t3.5 25.5h-58l3 17h61q18 58 47 107t66 85t81 56t91 20q30 0 55.5 -7.5t43.5 -19.5t28.5 -28t10.5 -33q0 -15 -10.5 -27.5t-27.5 -12.5q-14 0 -22 7.5t-10 18t1.5 23
t12.5 23.5q-8 15 -27 28.5t-57 13.5q-36 0 -70.5 -19.5t-64.5 -54t-54 -80.5t-38 -100h204l3 -17h-211q-2 -10 -3 -20l-2 -20q-8 -38 -8 -73h202l3 -17h-204q1 -39 10.5 -75t27.5 -63.5t45.5 -44t65.5 -16.5q42 0 81 23.5t71 63.5l9 -6q-37 -50 -82 -82.5t-105 -32.5z" />
    <glyph glyph-name="trademark" unicode="&#x2122;" horiz-adv-x="550" 
d="M335 414l22 1q8 0 11 2t3 10l5 178q-2 5 -5 6t-7 2l-23 2l-1 10h75l59 -175h3l66 175h74l-1 -10l-26 -2q-8 -1 -8 -5l5 -189q0 -2 1.5 -2t9.5 -1l22 -2l2 -11h-101l1 11l26 2q8 1 8 4l-5 187h-3l-77 -200h-11l-70 196l-3 2l-5 -179q0 -7 3 -9t14 -2l21 -1l2 -11h-88z
M159 414l28 2q9 1 9 4v195h-13q-31 0 -42 -8.5t-17 -22.5l-6 -23h-9l9 64h190l3 -65h-8l-4 24q-6 17 -17 24t-42 7h-12v-196q0 -2 1.5 -2t8.5 -1l26 -2v-11h-106z" />
    </font>
</defs>
</svg>
